/* XPM */
static char * goobox_xpm[] = {
"24 24 129 2",
"  	c None",
". 	c #F0F0F0",
"+ 	c #606060",
"@ 	c #A7A7A7",
"# 	c #E0E0E0",
"$ 	c #8E8E8E",
"% 	c #8D8D8D",
"& 	c #9D9D9D",
"* 	c #848484",
"= 	c #868686",
"- 	c #7E7E7E",
"; 	c #898989",
"> 	c #8A8A8A",
", 	c #7A7A7A",
"' 	c #393939",
") 	c #5D5D5D",
"! 	c #C8C8C8",
"~ 	c #BFBFBF",
"{ 	c #E8E8E8",
"] 	c #EBEBEB",
"^ 	c #EEEEEE",
"/ 	c #F2F2F2",
"( 	c #F5F5F5",
"_ 	c #D1D1D1",
": 	c #585858",
"< 	c #DBDBDB",
"[ 	c #838383",
"} 	c #787878",
"| 	c #D6D6D6",
"1 	c #656565",
"2 	c #E5E5E5",
"3 	c #ECECEC",
"4 	c #EFEFEF",
"5 	c #F3F3F3",
"6 	c #F6F6F6",
"7 	c #F9F9F9",
"8 	c #B6B6B6",
"9 	c #252525",
"0 	c #A0A0A0",
"a 	c #191919",
"b 	c #9A9A9A",
"c 	c #DADADA",
"d 	c #7B7B7B",
"e 	c #E6E6E6",
"f 	c #E2E2E2",
"g 	c #E9E9E9",
"h 	c #F4F4F4",
"i 	c #F7F7F7",
"j 	c #FBFBFB",
"k 	c #D3D3D3",
"l 	c #383838",
"m 	c #A1A1A1",
"n 	c #EDEDED",
"o 	c #E7E7E7",
"p 	c #DDDDDD",
"q 	c #DFDFDF",
"r 	c #E3E3E3",
"s 	c #EAEAEA",
"t 	c #F1F1F1",
"u 	c #FAFAFA",
"v 	c #FDFDFD",
"w 	c #B9B9B9",
"x 	c #565656",
"y 	c #E1E1E1",
"z 	c #E4E4E4",
"A 	c #CECECE",
"B 	c #C6C6C6",
"C 	c #C5C5C5",
"D 	c #CCCCCC",
"E 	c #474747",
"F 	c #B3B3B3",
"G 	c #D8D8D8",
"H 	c #C2C2C2",
"I 	c #B4B4B4",
"J 	c #B7B7B7",
"K 	c #BABABA",
"L 	c #D0D0D0",
"M 	c #DEDEDE",
"N 	c #F8F8F8",
"O 	c #353535",
"P 	c #3E3E3E",
"Q 	c #B0B0B0",
"R 	c #A4A4A4",
"S 	c #747474",
"T 	c #111111",
"U 	c #808080",
"V 	c #949494",
"W 	c #9F9F9F",
"X 	c #555555",
"Y 	c #7F7F7F",
"Z 	c #CFCFCF",
"` 	c #B8B8B8",
" .	c #D9D9D9",
"..	c #D2D2D2",
"+.	c #757575",
"@.	c #969696",
"#.	c #6F6F6F",
"$.	c #2B2B2B",
"%.	c #CBCBCB",
"&.	c #BEBEBE",
"*.	c #727272",
"=.	c #979797",
"-.	c #0C0C0C",
";.	c #6B6B6B",
">.	c #C7C7C7",
",.	c #525252",
"'.	c #3F3F3F",
").	c #777777",
"!.	c #C1C1C1",
"~.	c #BBBBBB",
"{.	c #D4D4D4",
"].	c #101010",
"^.	c #CDCDCD",
"/.	c #BDBDBD",
"(.	c #B2B2B2",
"_.	c #A6A6A6",
":.	c #545454",
"<.	c #D5D5D5",
"[.	c #C0C0C0",
"}.	c #DCDCDC",
"|.	c #2D2D2D",
"1.	c #000000",
"2.	c #363636",
"3.	c #8F8F8F",
"4.	c #2A2A2A",
"5.	c #707070",
"6.	c #6E6E6E",
"7.	c #4E4E4E",
"8.	c #0F0F0F",
"                                                ",
"          . + @ #                               ",
"          $ % & * = - ; > , '                   ",
"          ) ! % - ~ { ] ^ / ( _ :               ",
"      < [ } | ] 1 . 2 { 3 4 5 6 7 8 9           ",
"      0 a b c * d e f e g 3 . h i j k l         ",
"      m n o 0 a b p q r e s n t 6 u v w         ",
"      x o y e g z A B C D | e t i u j j E       ",
"      k ^ F y G H I J K H L M ^ 6 i N 7 H       ",
"    O ] . P Q z 8 R x     S p g . / 5 6 i T     ",
"    , 3 t U V W 8 X         Y y # ^ . h ( x     ",
"    > 6 N b 3 Z `              ...s n t / +.    ",
"    @.#.$.% e %.&.            Z D o s ^ . *.    ",
"    =.+ -.F s | Z ;.        = >.D z { ] ^ ,.    ",
"    '.u u h n { y | ).    Y !.~.{.y 2 { r ].    ",
"      | 6 h / 5 n f | ^.C /.(.C < M f e _.      ",
"      :.N i i 6 5 { <.>.[.!.%.<.G }.q }.|.      ",
"        K j 7 6 t ] e r # }.G <.|  . ., 1.      ",
"        2.A u 6 t n s e f q }.G <.{.3.1.        ",
"          l w 6 5 . 3 { 2 f M c _ +.1.          ",
"              ' &.4 4 3 { f | 0 4.1.            ",
"                  T X 5.6.7.8.1.                ",
"                                                ",
"                                                "};
