<?xml version="1.0" encoding="UTF-8" standalone="no"?>
<!-- Created with Inkscape (http://www.inkscape.org/) -->

<svg
   xmlns:dc="http://purl.org/dc/elements/1.1/"
   xmlns:cc="http://creativecommons.org/ns#"
   xmlns:rdf="http://www.w3.org/1999/02/22-rdf-syntax-ns#"
   xmlns:svg="http://www.w3.org/2000/svg"
   xmlns="http://www.w3.org/2000/svg"
   xmlns:xlink="http://www.w3.org/1999/xlink"
   version="1.1"
   width="210mm"
   height="297mm"
   id="svg3797">
  <defs
     id="defs3799">
    <linearGradient
       x1="336.21814"
       y1="-523.85535"
       x2="336.21814"
       y2="-431.04922"
       id="linearGradient4298"
       xlink:href="#linearGradient4292"
       gradientUnits="userSpaceOnUse"
       gradientTransform="translate(18.981858,-122.54764)" />
    <linearGradient
       id="linearGradient4292">
      <stop
         id="stop4294"
         style="stop-color:#000000;stop-opacity:1"
         offset="0" />
      <stop
         id="stop4296"
         style="stop-color:#ffffff;stop-opacity:1"
         offset="1" />
    </linearGradient>
    <linearGradient
       x1="336.21814"
       y1="-523.85535"
       x2="336.21814"
       y2="-431.04922"
       id="linearGradient5389"
       xlink:href="#linearGradient4292"
       gradientUnits="userSpaceOnUse"
       gradientTransform="matrix(1.25,0,0,1.25,23.727323,899.17765)" />
    <linearGradient
       x1="336.21814"
       y1="-523.85535"
       x2="336.21814"
       y2="-431.04922"
       id="linearGradient5392"
       xlink:href="#linearGradient4292"
       gradientUnits="userSpaceOnUse"
       gradientTransform="matrix(1.25,0,0,1.25,17.27455,899.17765)" />
  </defs>
  <text
     x="216.69568"
     y="114.04192"
     id="text14"
     style="font-size:40px">PrinterTestPage</text>
  <g
     transform="matrix(0.80481781,0,0,0.80481781,123,244.36218)"
     id="g3906">
    <title
       id="title4014">debian-openlogo</title>
    <path
       d="m 60.969,47.645 c -1.494,0.02 0.281,0.768 2.232,1.069 0.541,-0.422 1.027,-0.846 1.463,-1.26 -1.213,0.297 -2.449,0.304 -3.695,0.191"
       id="path3908"
       style="fill:#d70751" />
    <path
       d="m 68.986,45.646 c 0.893,-1.229 1.541,-2.573 1.77,-3.963 -0.201,0.99 -0.736,1.845 -1.244,2.749 -2.793,1.759 -0.264,-1.044 -0.002,-2.111 -3.002,3.783 -0.414,2.268 -0.524,3.325"
       id="path3910"
       style="fill:#d70751" />
    <path
       d="m 71.949,37.942 c 0.182,-2.691 -0.529,-1.839 -0.768,-0.814 0.278,0.146 0.499,1.898 0.768,0.814"
       id="path3912"
       style="fill:#d70751" />
    <path
       d="m 55.301,1.163 c 0.798,0.142 1.724,0.252 1.591,0.443 0.876,-0.193 1.073,-0.367 -1.591,-0.443"
       id="path3914"
       style="fill:#d70751" />
    <path
       d="M 56.893,1.606 56.332,1.723 56.855,1.675 56.893,1.606"
       id="path3916"
       style="fill:#d70751" />
    <path
       d="m 81.762,38.962 c 0.09,2.416 -0.705,3.59 -1.424,5.666 l -1.293,0.643 c -1.057,2.054 0.105,1.304 -0.652,2.937 -1.652,1.467 -5.006,4.589 -6.08,4.875 -0.785,-0.017 0.531,-0.926 0.703,-1.281 -2.209,1.516 -1.773,2.276 -5.152,3.199 L 67.766,54.78 c -8.33,3.92 -19.902,-3.847 -19.75,-14.443 -0.088,0.672 -0.253,0.504 -0.437,0.774 -0.43,-5.451 2.518,-10.926 7.49,-13.165 4.863,-2.406 10.564,-1.42 14.045,1.829 -1.912,-2.506 -5.721,-5.163 -10.232,-4.917 -4.421,0.072 -8.558,2.881 -9.938,5.932 -2.264,1.425 -2.528,5.496 -3.514,6.242 -1.329,9.76 2.497,13.975 8.97,18.936 1.016,0.686 0.286,0.791 0.422,1.313 -2.15,-1.006 -4.118,-2.526 -5.738,-4.387 0.86,1.257 1.787,2.479 2.986,3.439 -2.029,-0.685 -4.738,-4.913 -5.527,-5.085 3.495,6.258 14.178,10.975 19.775,8.634 -2.59,0.096 -5.879,0.053 -8.787,-1.022 -1.225,-0.629 -2.884,-1.93 -2.587,-2.173 7.636,2.851 15.522,2.158 22.128,-3.137 1.682,-1.31 3.518,-3.537 4.049,-3.567 -0.799,1.202 0.137,0.578 -0.477,1.639 1.672,-2.701 -0.729,-1.1 1.73,-4.664 l 0.908,1.25 c -0.34,-2.244 2.785,-4.966 2.467,-8.512 0.717,-1.084 0.799,1.168 0.039,3.662 1.055,-2.767 0.279,-3.212 0.549,-5.496 0.291,0.768 0.678,1.583 0.875,2.394 -0.688,-2.675 0.703,-4.503 1.049,-6.058 -0.342,-0.15 -1.061,1.182 -1.227,-1.976 0.025,-1.372 0.383,-0.719 0.52,-1.057 -0.268,-0.155 -0.975,-1.207 -1.404,-3.224 0.309,-0.475 0.832,1.229 1.256,1.298 -0.273,-1.603 -0.742,-2.826 -0.762,-4.057 -1.24,-2.59 -0.439,0.346 -1.443,-1.112 -1.32,-4.114 1.094,-0.955 1.258,-2.823 1.998,2.895 3.137,7.385 3.662,9.244 -0.4,-2.267 -1.045,-4.464 -1.834,-6.589 0.609,0.257 -0.979,-4.663 0.791,-1.405 C 87.189,15.552 81,9.062 75.305,6.018 76,6.655 76.879,7.455 76.565,7.581 73.731,5.896 74.229,5.763 73.823,5.051 71.518,4.112 71.364,5.128 69.839,5.053 65.489,2.745 64.651,2.99 60.648,1.546 L 60.83,2.398 C 57.949,1.438 57.473,2.76 54.36,2.4 54.171,2.253 55.358,1.864 56.336,1.723 53.55,2.091 53.68,1.173 50.954,1.824 51.625,1.353 52.337,1.04 53.053,0.64 50.782,0.778 47.629,1.962 48.602,0.884 44.897,2.538 38.316,4.859 34.623,8.322 L 34.507,7.546 c -1.692,2.031 -7.379,6.066 -7.832,8.699 l -0.453,0.105 c -0.879,1.491 -1.45,3.18 -2.148,4.713 -1.151,1.963 -1.688,0.756 -1.524,1.064 -2.265,4.592 -3.392,8.45 -4.363,11.616 0.692,1.035 0.017,6.232 0.278,10.391 -1.136,20.544 14.418,40.489 31.42,45.093 2.492,0.893 6.197,0.861 9.349,0.949 -3.718,-1.064 -4.198,-0.563 -7.822,-1.826 -2.613,-1.232 -3.185,-2.637 -5.037,-4.244 l 0.733,1.295 c -3.63,-1.285 -2.111,-1.59 -5.065,-2.525 l 0.783,-1.021 c -1.177,-0.09 -3.117,-1.982 -3.647,-3.033 l -1.288,0.051 c -1.546,-1.906 -2.371,-3.283 -2.31,-4.35 l -0.416,0.742 c -0.471,-0.809 -5.691,-7.158 -2.983,-5.68 -0.503,-0.458 -1.172,-0.747 -1.897,-2.066 l 0.551,-0.629 c -1.301,-1.677 -2.398,-3.826 -2.314,-4.542 0.695,0.938 1.177,1.114 1.655,1.275 -3.291,-8.164 -3.476,-0.449 -5.967,-8.31 l 0.526,-0.042 c -0.403,-0.611 -0.65,-1.27 -0.974,-1.919 l 0.23,-2.285 c -2.368,-2.736 -0.662,-11.645 -0.319,-16.53 0.235,-1.986 1.977,-4.101 3.3,-7.418 l -0.806,-0.138 c 1.542,-2.688 8.802,-10.799 12.166,-10.383 1.629,-2.046 -0.324,-0.008 -0.643,-0.522 3.579,-3.703 4.704,-2.616 7.119,-3.283 2.603,-1.545 -2.235,0.604 -1.001,-0.589 4.503,-1.149 3.19,-2.614 9.063,-3.197 0.62,0.352 -1.437,0.544 -1.953,1.001 3.75,-1.836 11.869,-1.417 17.145,1.018 6.117,2.861 12.994,11.314 13.266,19.267 l 0.309,0.083 c -0.156,3.162 0.484,6.819 -0.627,10.177 l 0.751,-1.591"
       id="path3918"
       style="fill:#d70751" />
    <path
       d="m 44.658,49.695 -0.211,1.047 c 0.983,1.335 1.763,2.781 3.016,3.821 -0.902,-1.759 -1.571,-2.486 -2.805,-4.868"
       id="path3920"
       style="fill:#d70751" />
    <path
       d="m 46.979,49.605 c -0.52,-0.576 -0.826,-1.268 -1.172,-1.956 0.33,1.211 1.006,2.252 1.633,3.312 l -0.461,-1.356"
       id="path3922"
       style="fill:#d70751" />
    <path
       d="m 88.063,40.675 -0.219,0.552 c -0.402,2.858 -1.273,5.686 -2.605,8.309 1.472,-2.767 2.421,-5.794 2.824,-8.861"
       id="path3924"
       style="fill:#d70751" />
    <path
       d="M 55.598,0.446 C 56.607,0.077 58.08,0.243 59.154,0 57.756,0.117 56.365,0.187 54.992,0.362 l 0.606,0.084"
       id="path3926"
       style="fill:#d70751" />
    <path
       d="m 20.127,19.308 c 0.233,2.154 -1.62,2.991 0.41,1.569 1.09,-2.454 -0.424,-0.677 -0.41,-1.569"
       id="path3928"
       style="fill:#d70751" />
    <path
       d="m 17.739,29.282 c 0.469,-1.437 0.553,-2.299 0.732,-3.132 -1.293,1.654 -0.596,2.007 -0.732,3.132"
       id="path3930"
       style="fill:#d70751" />
    <path
       d="m 13.437,125.506 c -0.045,0.047 -0.045,7.506 -0.138,9.453 -0.092,1.574 -0.232,4.957 -3.568,4.957 -3.429,0 -4.263,-3.939 -4.541,-5.652 -0.324,-1.9 -0.324,-3.477 -0.324,-4.17 0,-2.225 0.139,-8.436 5.375,-8.436 1.576,0 2.456,0.465 3.151,0.834 l 0.045,3.014 z M 0,130.975 c 0,13.066 6.951,13.066 7.97,13.066 2.873,0 4.727,-1.576 5.514,-4.309 l 0.093,4.123 c 0.881,-0.047 1.761,-0.139 3.197,-0.139 0.51,0 0.926,0 1.298,0.047 0.371,0 0.741,0.045 1.158,0.092 -0.741,-1.482 -1.297,-4.818 -1.297,-12.049 0,-7.043 0,-18.951 0.602,-22.566 -1.667,0.789 -3.105,1.299 -6.256,1.576 1.251,1.344 1.251,2.039 1.251,8.154 -0.879,-0.277 -1.992,-0.602 -3.892,-0.602 C 1.344,118.369 0,125.598 0,130.975"
       id="path3932" />
    <path
       d="m 25.13,128.609 c 0.047,-3.846 0.835,-7.275 4.124,-7.275 3.615,0 3.891,3.984 3.799,7.275 H 25.13 z m 12.51,0.465 c 0,-5.422 -1.065,-10.752 -7.923,-10.752 -9.452,0 -9.452,10.475 -9.452,12.697 0,9.406 4.216,13.113 11.306,13.113 3.149,0 4.68,-0.461 5.514,-0.695 -0.046,-1.668 0.185,-2.734 0.465,-4.17 -0.975,0.604 -2.226,1.391 -5.006,1.391 -7.229,0 -7.322,-6.582 -7.322,-8.852 H 37.55 l 0.09,-2.732"
       id="path3934" />
    <path
       d="m 52.715,131.066 c 0,4.309 -0.787,10.102 -6.162,10.102 -0.742,0 -1.668,-0.141 -2.27,-0.279 -0.093,-1.668 -0.093,-4.541 -0.093,-7.877 0,-3.986 0.416,-6.068 0.742,-7.09 0.972,-3.289 3.15,-3.334 3.566,-3.334 3.522,0 4.217,4.865 4.217,8.478 z m -13.298,5.051 c 0,3.43 0,5.375 -0.556,6.857 1.9,0.742 4.262,1.158 7.09,1.158 1.807,0 7.043,0 9.869,-5.791 1.344,-2.688 1.807,-6.303 1.807,-9.037 0,-1.668 -0.186,-5.328 -1.529,-7.646 -1.296,-2.176 -3.382,-3.289 -5.605,-3.289 -4.449,0 -5.746,3.707 -6.44,5.607 0,-2.363 0.045,-10.611 0.415,-14.828 -3.011,1.391 -4.866,1.621 -6.857,1.807 1.807,0.74 1.807,3.801 1.807,13.764 v 11.398"
       id="path3936" />
    <path
       d="m 66.535,143.855 c -0.928,-0.139 -1.578,-0.232 -2.922,-0.232 -1.48,0 -2.502,0.094 -3.566,0.232 0.463,-0.881 0.648,-1.299 0.787,-4.309 0.186,-4.125 0.232,-15.154 -0.092,-17.471 -0.232,-1.762 -0.648,-2.039 -1.297,-2.502 3.799,-0.371 4.865,-0.648 6.625,-1.482 -0.369,2.037 -0.418,3.059 -0.418,6.162 -0.091,15.989 -0.138,17.702 0.883,19.602"
       id="path3938" />
    <path
       d="m 81.373,130.74 c -0.092,2.92 -0.139,4.959 -0.928,6.58 -0.973,2.086 -2.594,2.688 -3.799,2.688 -2.783,0 -3.383,-2.316 -3.383,-4.586 0,-4.355 3.893,-4.682 5.652,-4.682 h 2.458 z m -12.744,5.701 c 0,2.92 0.881,5.838 3.477,7.09 1.158,0.51 2.316,0.51 2.688,0.51 4.264,0 5.699,-3.152 6.58,-5.098 -0.047,2.039 0,3.289 0.139,4.912 0.834,-0.047 1.668,-0.139 3.059,-0.139 0.787,0 1.529,0.092 2.316,0.139 -0.51,-0.787 -0.787,-1.252 -0.928,-3.059 -0.092,-1.76 -0.092,-3.521 -0.092,-5.977 l 0.047,-9.453 c 0,-3.523 -0.928,-6.998 -7.879,-6.998 -4.586,0 -7.273,1.391 -8.617,2.086 0.557,1.02 1.02,1.898 1.436,3.893 1.809,-1.576 4.172,-2.41 6.58,-2.41 3.848,0 3.848,2.549 3.848,6.162 -0.881,-0.045 -1.623,-0.137 -2.875,-0.137 -5.887,10e-4 -9.779,2.268 -9.779,8.479"
       id="path3940" />
    <path
       d="m 108.063,139.268 c 0.047,1.576 0.047,3.244 0.695,4.588 -1.021,-0.092 -1.623,-0.232 -3.521,-0.232 -1.113,0 -1.715,0.094 -2.596,0.232 0.184,-0.602 0.279,-0.834 0.371,-1.623 0.139,-1.064 0.232,-4.633 0.232,-5.885 v -5.004 c 0,-2.178 0,-5.33 -0.141,-6.441 -0.092,-0.787 -0.322,-2.918 -3.012,-2.918 -2.641,0 -3.521,1.945 -3.846,3.521 -0.369,1.621 -0.369,3.383 -0.369,10.24 0.045,5.932 0.045,6.486 0.508,8.109 -0.787,-0.092 -1.76,-0.184 -3.15,-0.184 -1.113,0 -1.854,0.045 -2.779,0.184 0.324,-0.742 0.51,-1.113 0.602,-3.707 0.094,-2.549 0.279,-15.061 -0.141,-18.025 -0.23,-1.809 -0.695,-2.225 -1.203,-2.688 3.754,-0.186 4.957,-0.789 6.117,-1.389 v 4.91 c 0.555,-1.438 1.713,-4.635 6.348,-4.635 5.793,0 5.838,4.217 5.885,6.996 v 13.951"
       id="path3942" />
    <path
       d="m 66.926,111.533 -3.838,3.836 -3.836,-3.836 3.836,-3.836 3.838,3.836"
       id="path3944"
       style="fill:#d70751" />
  </g>
  <g
     transform="matrix(0.23200001,0,0,0.23200001,63.69698,218.15859)"
     id="g6307">
    <title
       id="title5654">color-wheel</title>
    <path
       d="m 371.42857,450.93362 a 157.14285,175.71428 0 0 1 -0.0477,4.32896 l -157.09516,-4.32896 z"
       transform="matrix(1.5909091,0,0,1.4227643,848.1005,-278.62576)"
       id="use5287"
       style="fill:#ff0101;fill-opacity:1;stroke:none" />
    <path
       d="m 371.42857,450.93362 a 157.14285,175.71428 0 0 1 -0.0477,4.32896 l -157.09516,-4.32896 z"
       transform="matrix(1.5904262,0.03919415,-0.03505168,1.4223325,864.00995,-286.82978)"
       id="use5289"
       style="fill:#ff0701;fill-opacity:1;stroke:none" />
    <path
       d="m 371.42857,450.93362 a 157.14285,175.71428 0 0 1 -0.0477,4.32896 l -157.09516,-4.32896 z"
       transform="matrix(1.5889779,0.07836451,-0.07008208,1.4210372,880.11669,-294.63935)"
       id="use5291"
       style="fill:#ff0d01;fill-opacity:1;stroke:none" />
    <path
       d="m 371.42857,450.93362 a 157.14285,175.71428 0 0 1 -0.0477,4.32896 l -157.09516,-4.32896 z"
       transform="matrix(1.586565,0.11748728,-0.10506993,1.4188793,896.41094,-302.04974)"
       id="use5293"
       style="fill:#ff1301;fill-opacity:1;stroke:none" />
    <path
       d="m 371.42857,450.93362 a 157.14285,175.71428 0 0 1 -0.0477,4.32896 l -157.09516,-4.32896 z"
       transform="matrix(1.583189,0.15653874,-0.139994,1.4158601,912.88281,-309.05646)"
       id="use5295"
       style="fill:#ff1901;fill-opacity:1;stroke:none" />
    <path
       d="m 371.42857,450.93362 a 157.14285,175.71428 0 0 1 -0.0477,4.32896 l -157.09516,-4.32896 z"
       transform="matrix(1.5788519,0.19549519,-0.1748331,1.4119815,929.5223,-315.65524)"
       id="use5297"
       style="fill:#ff1f01;fill-opacity:1;stroke:none" />
    <path
       d="m 371.42857,450.93362 a 157.14285,175.71428 0 0 1 -0.0477,4.32896 l -157.09516,-4.32896 z"
       transform="matrix(1.5735564,0.23433296,-0.20956607,1.4072457,946.31932,-321.84208)"
       id="use5299"
       style="fill:#ff2601;fill-opacity:1;stroke:none" />
    <path
       d="m 371.42857,450.93362 a 157.14285,175.71428 0 0 1 -0.0477,4.32896 l -157.09516,-4.32896 z"
       transform="matrix(1.5673057,0.27302846,-0.24417181,1.4016556,963.26365,-327.61324)"
       id="use5301"
       style="fill:#ff2c01;fill-opacity:1;stroke:none" />
    <path
       d="m 371.42857,450.93362 a 157.14285,175.71428 0 0 1 -0.0477,4.32896 l -157.09516,-4.32896 z"
       transform="matrix(1.5601036,0.31155824,-0.27862934,1.3952147,980.34502,-332.96518)"
       id="use5303"
       style="fill:#ff3201;fill-opacity:1;stroke:none" />
    <path
       d="m 371.42857,450.93362 a 157.14285,175.71428 0 0 1 -0.0477,4.32896 l -157.09516,-4.32896 z"
       transform="matrix(1.5519544,0.34989888,-0.31291772,1.3879268,997.55305,-337.89469)"
       id="use5305"
       style="fill:#ff3801;fill-opacity:1;stroke:none" />
    <path
       d="m 371.42857,450.93362 a 157.14285,175.71428 0 0 1 -0.0477,4.32896 l -157.09516,-4.32896 z"
       transform="matrix(1.5428632,0.38802714,-0.34701615,1.3797964,1014.8773,-342.39875)"
       id="use5307"
       style="fill:#ff3e01;fill-opacity:1;stroke:none" />
    <path
       d="m 371.42857,450.93362 a 157.14285,175.71428 0 0 1 -0.0477,4.32896 l -157.09516,-4.32896 z"
       transform="matrix(1.5328353,0.42591982,-0.38090392,1.3708284,1032.3073,-346.47465)"
       id="use5309"
       style="fill:#ff4401;fill-opacity:1;stroke:none" />
    <path
       d="m 371.42857,450.93362 a 157.14285,175.71428 0 0 1 -0.0477,4.32896 l -157.09516,-4.32896 z"
       transform="matrix(1.521877,0.46355397,-0.41456048,1.3610282,1049.8324,-350.11989)"
       id="use5311"
       style="fill:#ff4a01;fill-opacity:1;stroke:none" />
    <path
       d="m 371.42857,450.93362 a 157.14285,175.71428 0 0 1 -0.0477,4.32896 l -157.09516,-4.32896 z"
       transform="matrix(1.5099948,0.50090672,-0.44796538,1.3504019,1067.4419,-353.33228)"
       id="use5313"
       style="fill:#ff5001;fill-opacity:1;stroke:none" />
    <path
       d="m 371.42857,450.93362 a 157.14285,175.71428 0 0 1 -0.0477,4.32896 l -157.09516,-4.32896 z"
       transform="matrix(1.497196,0.53795541,-0.48109836,1.3389558,1085.1253,-356.10984)"
       id="use5315"
       style="fill:#ff5601;fill-opacity:1;stroke:none" />
    <path
       d="m 371.42857,450.93362 a 157.14285,175.71428 0 0 1 -0.0477,4.32896 l -157.09516,-4.32896 z"
       transform="matrix(1.4834883,0.57467752,-0.51393927,1.3266969,1102.8717,-358.45093)"
       id="use5317"
       style="fill:#ff5c01;fill-opacity:1;stroke:none" />
    <path
       d="m 371.42857,450.93362 a 157.14285,175.71428 0 0 1 -0.0477,4.32896 l -157.09516,-4.32896 z"
       transform="matrix(1.4688801,0.6110508,-0.54646822,1.3136327,1120.6705,-360.35409)"
       id="use5319"
       style="fill:#ff6301;fill-opacity:1;stroke:none" />
    <path
       d="m 371.42857,450.93362 a 157.14285,175.71428 0 0 1 -0.0477,4.32896 l -157.09516,-4.32896 z"
       transform="matrix(1.4533802,0.64705312,-0.57866542,1.299771,1138.5107,-361.81818)"
       id="use5321"
       style="fill:#ff6901;fill-opacity:1;stroke:none" />
    <path
       d="m 371.42857,450.93362 a 157.14285,175.71428 0 0 1 -0.0477,4.32896 l -157.09516,-4.32896 z"
       transform="matrix(1.4369981,0.68266267,-0.61051136,1.2851203,1156.3815,-362.8423)"
       id="use5323"
       style="fill:#ff6f01;fill-opacity:1;stroke:none" />
    <path
       d="m 371.42857,450.93362 a 157.14285,175.71428 0 0 1 -0.0477,4.32896 l -157.09516,-4.32896 z"
       transform="matrix(1.4197436,0.71785782,-0.64198669,1.2696895,1174.2722,-363.42585)"
       id="use5325"
       style="fill:#ff7501;fill-opacity:1;stroke:none" />
    <path
       d="m 371.42857,450.93362 a 157.14285,175.71428 0 0 1 -0.0477,4.32896 l -157.09516,-4.32896 z"
       transform="matrix(1.4016273,0.75261719,-0.67307231,1.2534879,1192.1718,-363.56845)"
       id="use5327"
       style="fill:#ff7b01;fill-opacity:1;stroke:none" />
    <path
       d="m 371.42857,450.93362 a 157.14285,175.71428 0 0 1 -0.0477,4.32896 l -157.09516,-4.32896 z"
       transform="matrix(1.3826602,0.78691969,-0.70374935,1.2365254,1210.0695,-363.27004)"
       id="use5329"
       style="fill:#ff8101;fill-opacity:1;stroke:none" />
    <path
       d="m 371.42857,450.93362 a 157.14285,175.71428 0 0 1 -0.0477,4.32896 l -157.09516,-4.32896 z"
       transform="matrix(1.3628537,0.8207445,-0.73399918,1.2188123,1227.9544,-362.53078)"
       id="use5331"
       style="fill:#ff8701;fill-opacity:1;stroke:none" />
    <path
       d="m 371.42857,450.93362 a 157.14285,175.71428 0 0 1 -0.0477,4.32896 l -157.09516,-4.32896 z"
       transform="matrix(1.3422199,0.85407109,-0.76380345,1.2003593,1245.8157,-361.35112)"
       id="use5333"
       style="fill:#ff8d01;fill-opacity:1;stroke:none" />
    <path
       d="m 371.42857,450.93362 a 157.14285,175.71428 0 0 1 -0.0477,4.32896 l -157.09516,-4.32896 z"
       transform="matrix(1.3207714,0.88687923,-0.79314406,1.1811777,1263.6425,-359.73179)"
       id="use5335"
       style="fill:#ff9301;fill-opacity:1;stroke:none" />
    <path
       d="m 371.42857,450.93362 a 157.14285,175.71428 0 0 1 -0.0477,4.32896 l -157.09516,-4.32896 z"
       transform="matrix(1.298521,0.91914899,-0.8220032,1.161279,1281.424,-357.67376)"
       id="use5337"
       style="fill:#ff9901;fill-opacity:1;stroke:none" />
    <path
       d="m 371.42857,450.93362 a 157.14285,175.71428 0 0 1 -0.0477,4.32896 l -157.09516,-4.32896 z"
       transform="matrix(1.2754825,0.95086079,-0.85036334,1.1406754,1299.1493,-355.17829)"
       id="use5339"
       style="fill:#ff9f01;fill-opacity:1;stroke:none" />
    <path
       d="m 371.42857,450.93362 a 157.14285,175.71428 0 0 1 -0.0477,4.32896 l -157.09516,-4.32896 z"
       transform="matrix(1.2516696,0.98199537,-0.87820728,1.1193794,1316.8079,-352.24689)"
       id="use5341"
       style="fill:#ffa601;fill-opacity:1;stroke:none" />
    <path
       d="m 371.42857,450.93362 a 157.14285,175.71428 0 0 1 -0.0477,4.32896 l -157.09516,-4.32896 z"
       transform="matrix(1.227097,1.0125339,-0.90551813,1.0974038,1334.3888,-348.88133)"
       id="use5343"
       style="fill:#ffac01;fill-opacity:1;stroke:none" />
    <path
       d="m 371.42857,450.93362 a 157.14285,175.71428 0 0 1 -0.0477,4.32896 l -157.09516,-4.32896 z"
       transform="matrix(1.2017794,1.0424577,-0.93227927,1.0747621,1351.8815,-345.08367)"
       id="use5345"
       style="fill:#ffb201;fill-opacity:1;stroke:none" />
    <path
       d="m 371.42857,450.93362 a 157.14285,175.71428 0 0 1 -0.0477,4.32896 l -157.09516,-4.32896 z"
       transform="matrix(1.1757323,1.0717487,-0.95847449,1.051468,1369.2753,-340.8562)"
       id="use5347"
       style="fill:#ffb801;fill-opacity:1;stroke:none" />
    <path
       d="m 371.42857,450.93362 a 157.14285,175.71428 0 0 1 -0.0477,4.32896 l -157.09516,-4.32896 z"
       transform="matrix(1.1489715,1.1003891,-0.98408788,1.0275356,1386.5597,-336.2015)"
       id="use5349"
       style="fill:#ffbe01;fill-opacity:1;stroke:none" />
    <path
       d="m 371.42857,450.93362 a 157.14285,175.71428 0 0 1 -0.0477,4.32896 l -157.09516,-4.32896 z"
       transform="matrix(1.1215132,1.1283616,-1.0091039,1.0029794,1403.7242,-331.12239)"
       id="use5351"
       style="fill:#ffc401;fill-opacity:1;stroke:none" />
    <path
       d="m 371.42857,450.93362 a 157.14285,175.71428 0 0 1 -0.0477,4.32896 l -157.09516,-4.32896 z"
       transform="matrix(1.0933742,1.155649,-1.0335073,0.97781434,1420.7583,-325.62195)"
       id="use5353"
       style="fill:#ffca01;fill-opacity:1;stroke:none" />
    <path
       d="m 371.42857,450.93362 a 157.14285,175.71428 0 0 1 -0.0477,4.32896 l -157.09516,-4.32896 z"
       transform="matrix(1.0645714,1.182235,-1.0572834,0.95205574,1437.6518,-319.70352)"
       id="use5355"
       style="fill:#ffd001;fill-opacity:1;stroke:none" />
    <path
       d="m 371.42857,450.93362 a 157.14285,175.71428 0 0 1 -0.0477,4.32896 l -157.09516,-4.32896 z"
       transform="matrix(1.0351223,1.2081033,-1.0804176,0.9257192,1454.3943,-313.37069)"
       id="use5357"
       style="fill:#ffd601;fill-opacity:1;stroke:none" />
    <path
       d="m 371.42857,450.93362 a 157.14285,175.71428 0 0 1 -0.0477,4.32896 l -157.09516,-4.32896 z"
       transform="matrix(1.0050449,1.2332382,-1.102896,0.8988207,1470.9757,-306.62731)"
       id="use5359"
       style="fill:#ffdc01;fill-opacity:1;stroke:none" />
    <path
       d="m 371.42857,450.93362 a 157.14285,175.71428 0 0 1 -0.0477,4.32896 l -157.09516,-4.32896 z"
       transform="matrix(0.97435743,1.2576245,-1.1247049,0.87137661,1487.386,-299.47748)"
       id="use5361"
       style="fill:#ffe301;fill-opacity:1;stroke:none" />
    <path
       d="m 371.42857,450.93362 a 157.14285,175.71428 0 0 1 -0.0477,4.32896 l -157.09516,-4.32896 z"
       transform="matrix(0.94307844,1.2812474,-1.145831,0.84340352,1503.6151,-291.92552)"
       id="use5363"
       style="fill:#ffe901;fill-opacity:1;stroke:none" />
    <path
       d="m 371.42857,450.93362 a 157.14285,175.71428 0 0 1 -0.0477,4.32896 l -157.09516,-4.32896 z"
       transform="matrix(0.91122698,1.3040925,-1.1662616,0.81491847,1519.6532,-283.97603)"
       id="use5365"
       style="fill:#ffef01;fill-opacity:1;stroke:none" />
    <path
       d="m 371.42857,450.93362 a 157.14285,175.71428 0 0 1 -0.0477,4.32896 l -157.09516,-4.32896 z"
       transform="matrix(0.87882237,1.3261459,-1.1859842,0.78593874,1535.4907,-275.63384)"
       id="use5367"
       style="fill:#fff501;fill-opacity:1;stroke:none" />
    <path
       d="m 371.42857,450.93362 a 157.14285,175.71428 0 0 1 -0.0477,4.32896 l -157.09516,-4.32896 z"
       transform="matrix(0.84588427,1.3473944,-1.2049869,0.7564819,1551.1178,-266.904)"
       id="use5369"
       style="fill:#fffb01;fill-opacity:1;stroke:none" />
    <path
       d="m 371.42857,450.93362 a 157.14285,175.71428 0 0 1 -0.0477,4.32896 l -157.09516,-4.32896 z"
       transform="matrix(0.81243268,1.3678249,-1.2232581,0.72656585,1566.5251,-257.7918)"
       id="use5371"
       style="fill:#fdff01;fill-opacity:1;stroke:none" />
    <path
       d="m 371.42857,450.93362 a 157.14285,175.71428 0 0 1 -0.0477,4.32896 l -157.09516,-4.32896 z"
       transform="matrix(0.77848793,1.3874251,-1.2407867,0.69620875,1581.7032,-248.30281)"
       id="use5373"
       style="fill:#f7ff01;fill-opacity:1;stroke:none" />
    <path
       d="m 371.42857,450.93362 a 157.14285,175.71428 0 0 1 -0.0477,4.32896 l -157.09516,-4.32896 z"
       transform="matrix(0.74407059,1.406183,-1.2575621,0.66542901,1596.6429,-238.44276)"
       id="use5375"
       style="fill:#f1ff01;fill-opacity:1;stroke:none" />
    <path
       d="m 371.42857,450.93362 a 157.14285,175.71428 0 0 1 -0.0477,4.32896 l -157.09516,-4.32896 z"
       transform="matrix(0.70920158,1.4240874,-1.2735741,0.63424535,1611.3352,-228.21764)"
       id="use5377"
       style="fill:#ebff01;fill-opacity:1;stroke:none" />
    <path
       d="m 371.42857,450.93362 a 157.14285,175.71428 0 0 1 -0.0477,4.32896 l -157.09516,-4.32896 z"
       transform="matrix(0.67390205,1.4411273,-1.2888131,0.60267665,1625.7712,-217.63366)"
       id="use5379"
       style="fill:#e5ff01;fill-opacity:1;stroke:none" />
    <path
       d="m 371.42857,450.93362 a 157.14285,175.71428 0 0 1 -0.0477,4.32896 l -157.09516,-4.32896 z"
       transform="matrix(0.63819344,1.4572923,-1.3032696,0.57074213,1639.942,-206.69724)"
       id="use5381"
       style="fill:#deff01;fill-opacity:1;stroke:none" />
    <path
       d="m 371.42857,450.93362 a 157.14285,175.71428 0 0 1 -0.0477,4.32896 l -157.09516,-4.32896 z"
       transform="matrix(0.60209741,1.4725727,-1.316935,0.53846113,1653.839,-195.41503)"
       id="use5383"
       style="fill:#d8ff01;fill-opacity:1;stroke:none" />
    <path
       d="m 371.42857,450.93362 a 157.14285,175.71428 0 0 1 -0.0477,4.32896 l -157.09516,-4.32896 z"
       transform="matrix(0.56563589,1.4869592,-1.329801,0.50585326,1667.4539,-183.79388)"
       id="use5385"
       style="fill:#d2ff01;fill-opacity:1;stroke:none" />
    <path
       d="m 371.42857,450.93362 a 157.14285,175.71428 0 0 1 -0.0477,4.32896 l -157.09516,-4.32896 z"
       transform="matrix(0.52883101,1.5004431,-1.3418598,0.47293832,1680.7783,-171.84082)"
       id="use5387"
       style="fill:#ccff01;fill-opacity:1;stroke:none" />
    <path
       d="m 371.42857,450.93362 a 157.14285,175.71428 0 0 1 -0.0477,4.32896 l -157.09516,-4.32896 z"
       transform="matrix(0.49170509,1.5130162,-1.3531039,0.43973628,1693.8043,-159.56312)"
       id="use5389"
       style="fill:#c6ff01;fill-opacity:1;stroke:none" />
    <path
       d="m 371.42857,450.93362 a 157.14285,175.71428 0 0 1 -0.0477,4.32896 l -157.09516,-4.32896 z"
       transform="matrix(0.4542807,1.5246707,-1.3635267,0.40626732,1706.5238,-146.96825)"
       id="use5391"
       style="fill:#c0ff01;fill-opacity:1;stroke:none" />
    <path
       d="m 371.42857,450.93362 a 157.14285,175.71428 0 0 1 -0.0477,4.32896 l -157.09516,-4.32896 z"
       transform="matrix(0.41658053,1.5353998,-1.3731218,0.37255171,1718.9291,-134.06384)"
       id="use5393"
       style="fill:#baff01;fill-opacity:1;stroke:none" />
    <path
       d="m 371.42857,450.93362 a 157.14285,175.71428 0 0 1 -0.0477,4.32896 l -157.09516,-4.32896 z"
       transform="matrix(0.3786275,1.5451967,-1.3818833,0.33860998,1731.0128,-120.85772)"
       id="use5395"
       style="fill:#b4ff01;fill-opacity:1;stroke:none" />
    <path
       d="m 371.42857,450.93362 a 157.14285,175.71428 0 0 1 -0.0477,4.32896 l -157.09516,-4.32896 z"
       transform="matrix(0.34044462,1.5540557,-1.389806,0.30446268,1742.7674,-107.35791)"
       id="use5397"
       style="fill:#aeff01;fill-opacity:1;stroke:none" />
    <path
       d="m 371.42857,450.93362 a 157.14285,175.71428 0 0 1 -0.0477,4.32896 l -157.09516,-4.32896 z"
       transform="matrix(0.30205508,1.5619714,-1.396885,0.27013057,1754.186,-93.572609)"
       id="use5399"
       style="fill:#a8ff01;fill-opacity:1;stroke:none" />
    <path
       d="m 371.42857,450.93362 a 157.14285,175.71428 0 0 1 -0.0477,4.32896 l -157.09516,-4.32896 z"
       transform="matrix(0.26348217,1.5689388,-1.4031161,0.23563447,1765.2613,-79.510174)"
       id="use5401"
       style="fill:#a2ff01;fill-opacity:1;stroke:none" />
    <path
       d="m 371.42857,450.93362 a 157.14285,175.71428 0 0 1 -0.0477,4.32896 l -157.09516,-4.32896 z"
       transform="matrix(0.22474932,1.5749538,-1.4084953,0.20099534,1775.9869,-65.179164)"
       id="use5403"
       style="fill:#9bff01;fill-opacity:1;stroke:none" />
    <path
       d="m 371.42857,450.93362 a 157.14285,175.71428 0 0 1 -0.0477,4.32896 l -157.09516,-4.32896 z"
       transform="matrix(0.18588004,1.5800128,-1.4130196,0.16623419,1786.3562,-50.588254)"
       id="use5405"
       style="fill:#95ff01;fill-opacity:1;stroke:none" />
    <path
       d="m 371.42857,450.93362 a 157.14285,175.71428 0 0 1 -0.0477,4.32896 l -157.09516,-4.32896 z"
       transform="matrix(0.14689791,1.5841126,-1.4166861,0.13137212,1796.3629,-35.746314)"
       id="use5407"
       style="fill:#8fff01;fill-opacity:1;stroke:none" />
    <path
       d="m 371.42857,450.93362 a 157.14285,175.71428 0 0 1 -0.0477,4.32896 l -157.09516,-4.32896 z"
       transform="matrix(0.10782662,1.5872508,-1.4194927,0.09643031,1806.0008,-20.662352)"
       id="use5409"
       style="fill:#89ff01;fill-opacity:1;stroke:none" />
    <path
       d="m 371.42857,450.93362 a 157.14285,175.71428 0 0 1 -0.0477,4.32896 l -157.09516,-4.32896 z"
       transform="matrix(0.06868987,1.5894255,-1.4214375,0.06142997,1815.2643,-5.34553)"
       id="use5411"
       style="fill:#83ff01;fill-opacity:1;stroke:none" />
    <path
       d="m 371.42857,450.93362 a 157.14285,175.71428 0 0 1 -0.0477,4.32896 l -157.09516,-4.32896 z"
       transform="matrix(0.02951143,1.5906354,-1.4225195,0.02639233,1824.1476,10.194868)"
       id="use5413"
       style="fill:#7dff01;fill-opacity:1;stroke:none" />
    <path
       d="m 371.42857,450.93362 a 157.14285,175.71428 0 0 1 -0.0477,4.32896 l -157.09516,-4.32896 z"
       transform="matrix(-0.00968493,1.5908796,-1.4227379,-0.00866132,1832.6453,25.949396)"
       id="use5415"
       style="fill:#77ff01;fill-opacity:1;stroke:none" />
    <path
       d="m 371.42857,450.93362 a 157.14285,175.71428 0 0 1 -0.0477,4.32896 l -157.09516,-4.32896 z"
       transform="matrix(-0.04887542,1.5901582,-1.4220927,-0.04370972,1840.7524,41.908504)"
       id="use5417"
       style="fill:#71ff01;fill-opacity:1;stroke:none" />
    <path
       d="m 371.42857,450.93362 a 157.14285,175.71428 0 0 1 -0.0477,4.32896 l -157.09516,-4.32896 z"
       transform="matrix(-0.08803622,1.5884714,-1.4205842,-0.07873158,1848.4638,58.062479)"
       id="use5419"
       style="fill:#6bff01;fill-opacity:1;stroke:none" />
    <path
       d="m 371.42857,450.93362 a 157.14285,175.71428 0 0 1 -0.0477,4.32896 l -157.09516,-4.32896 z"
       transform="matrix(-0.12714359,1.5858204,-1.4182134,-0.11370566,1855.7747,74.401545)"
       id="use5421"
       style="fill:#65ff01;fill-opacity:1;stroke:none" />
    <path
       d="m 371.42857,450.93362 a 157.14285,175.71428 0 0 1 -0.0477,4.32896 l -157.09516,-4.32896 z"
       transform="matrix(-0.16617378,1.5822067,-1.4149817,-0.1486107,1862.6811,90.915765)"
       id="use5423"
       style="fill:#5eff01;fill-opacity:1;stroke:none" />
    <path
       d="m 371.42857,450.93362 a 157.14285,175.71428 0 0 1 -0.0477,4.32896 l -157.09516,-4.32896 z"
       transform="matrix(-0.20510309,1.5776325,-1.410891,-0.18342553,1869.1784,107.59511)"
       id="use5425"
       style="fill:#58ff01;fill-opacity:1;stroke:none" />
    <path
       d="m 371.42857,450.93362 a 157.14285,175.71428 0 0 1 -0.0477,4.32896 l -157.09516,-4.32896 z"
       transform="matrix(-0.24390791,1.5721007,-1.4059438,-0.21812903,1875.2629,124.42949)"
       id="use5427"
       style="fill:#52ff01;fill-opacity:1;stroke:none" />
    <path
       d="m 371.42857,450.93362 a 157.14285,175.71428 0 0 1 -0.0477,4.32896 l -157.09516,-4.32896 z"
       transform="matrix(-0.28256464,1.5656146,-1.4001432,-0.2527001,1880.9308,141.40863)"
       id="use5429"
       style="fill:#4cff01;fill-opacity:1;stroke:none" />
    <path
       d="m 371.42857,450.93362 a 157.14285,175.71428 0 0 1 -0.0477,4.32896 l -157.09516,-4.32896 z"
       transform="matrix(-0.32104986,1.558178,-1.3934926,-0.28711778,1886.1786,158.52226)"
       id="use5431"
       style="fill:#46ff01;fill-opacity:1;stroke:none" />
    <path
       d="m 371.42857,450.93362 a 157.14285,175.71428 0 0 1 -0.0477,4.32896 l -157.09516,-4.32896 z"
       transform="matrix(-0.3593402,1.5497956,-1.3859961,-0.32136117,1891.0033,175.76)"
       id="use5433"
       style="fill:#40ff01;fill-opacity:1;stroke:none" />
    <path
       d="m 371.42857,450.93362 a 157.14285,175.71428 0 0 1 -0.0477,4.32896 l -157.09516,-4.32896 z"
       transform="matrix(-0.39741239,1.5404724,-1.3776583,-0.35540947,1895.4018,193.11135)"
       id="use5435"
       style="fill:#3aff01;fill-opacity:1;stroke:none" />
    <path
       d="m 371.42857,450.93362 a 157.14285,175.71428 0 0 1 -0.0477,4.32896 l -157.09516,-4.32896 z"
       transform="matrix(-0.43524333,1.530214,-1.3684842,-0.38924202,1899.3715,210.5658)"
       id="use5437"
       style="fill:#34ff01;fill-opacity:1;stroke:none" />
    <path
       d="m 371.42857,450.93362 a 157.14285,175.71428 0 0 1 -0.0477,4.32896 l -157.09516,-4.32896 z"
       transform="matrix(-0.47281007,1.5190268,-1.3584793,-0.42283829,1902.91,228.11276)"
       id="use5439"
       style="fill:#2eff01;fill-opacity:1;stroke:none" />
    <path
       d="m 371.42857,450.93362 a 157.14285,175.71428 0 0 1 -0.0477,4.32896 l -157.09516,-4.32896 z"
       transform="matrix(-0.5100898,1.5069174,-1.3476498,-0.45617789,1906.0151,245.74156)"
       id="use5441"
       style="fill:#28ff01;fill-opacity:1;stroke:none" />
    <path
       d="m 371.42857,450.93362 a 157.14285,175.71428 0 0 1 -0.0477,4.32896 l -157.09516,-4.32896 z"
       transform="matrix(-0.54705987,1.4938933,-1.3360022,-0.48924055,1908.6851,263.44151)"
       id="use5443"
       style="fill:#22ff01;fill-opacity:1;stroke:none" />
    <path
       d="m 371.42857,450.93362 a 157.14285,175.71428 0 0 1 -0.0477,4.32896 l -157.09516,-4.32896 z"
       transform="matrix(-0.58369787,1.4799624,-1.3235436,-0.52200625,1910.9181,281.20188)"
       id="use5445"
       style="fill:#1bff01;fill-opacity:1;stroke:none" />
    <path
       d="m 371.42857,450.93362 a 157.14285,175.71428 0 0 1 -0.0477,4.32896 l -157.09516,-4.32896 z"
       transform="matrix(-0.61998152,1.465133,-1.3102816,-0.55445505,1912.7128,299.01185)"
       id="use5447"
       style="fill:#15ff01;fill-opacity:1;stroke:none" />
    <path
       d="m 371.42857,450.93362 a 157.14285,175.71428 0 0 1 -0.0477,4.32896 l -157.09516,-4.32896 z"
       transform="matrix(-0.65588884,1.4494142,-1.2962242,-0.58656728,1914.0683,316.86065)"
       id="use5449"
       style="fill:#0fff01;fill-opacity:1;stroke:none" />
    <path
       d="m 371.42857,450.93362 a 157.14285,175.71428 0 0 1 -0.0477,4.32896 l -157.09516,-4.32896 z"
       transform="matrix(-0.69139799,1.4328156,-1.2813799,-0.61832343,1914.9836,334.73741)"
       id="use5451"
       style="fill:#09ff01;fill-opacity:1;stroke:none" />
    <path
       d="m 371.42857,450.93362 a 157.14285,175.71428 0 0 1 -0.0477,4.32896 l -157.09516,-4.32896 z"
       transform="matrix(-0.72648745,1.4153472,-1.2657577,-0.64970425,1915.4582,352.6313)"
       id="use5453"
       style="fill:#03ff01;fill-opacity:1;stroke:none" />
    <path
       d="m 371.42857,450.93362 a 157.14285,175.71428 0 0 1 -0.0477,4.32896 l -157.09516,-4.32896 z"
       transform="matrix(-0.76113589,1.3970197,-1.2493672,-0.68069066,1915.4918,370.53145)"
       id="use5455"
       style="fill:#01ff05;fill-opacity:1;stroke:none" />
    <path
       d="m 371.42857,450.93362 a 157.14285,175.71428 0 0 1 -0.0477,4.32896 l -157.09516,-4.32896 z"
       transform="matrix(-0.7953223,1.3778441,-1.2322183,-0.71126388,1915.0845,388.427)"
       id="use5457"
       style="fill:#01ff0b;fill-opacity:1;stroke:none" />
    <path
       d="m 371.42857,450.93362 a 157.14285,175.71428 0 0 1 -0.0477,4.32896 l -157.09516,-4.32896 z"
       transform="matrix(-0.8290259,1.357832,-1.2143214,-0.74140531,1914.2364,406.30707)"
       id="use5459"
       style="fill:#01ff11;fill-opacity:1;stroke:none" />
    <path
       d="m 371.42857,450.93362 a 157.14285,175.71428 0 0 1 -0.0477,4.32896 l -157.09516,-4.32896 z"
       transform="matrix(-0.86222626,1.3369958,-1.1956873,-0.77109669,1912.9479,424.16084)"
       id="use5461"
       style="fill:#01ff17;fill-opacity:1;stroke:none" />
    <path
       d="m 371.42857,450.93362 a 157.14285,175.71428 0 0 1 -0.0477,4.32896 l -157.09516,-4.32896 z"
       transform="matrix(-0.89490322,1.3153479,-1.1763274,-0.80031999,1911.2202,441.97743)"
       id="use5463"
       style="fill:#01ff1d;fill-opacity:1;stroke:none" />
    <path
       d="m 371.42857,450.93362 a 157.14285,175.71428 0 0 1 -0.0477,4.32896 l -157.09516,-4.32896 z"
       transform="matrix(-0.92703692,1.2929015,-1.1562534,-0.82905745,1909.0539,459.74605)"
       id="use5465"
       style="fill:#01ff24;fill-opacity:1;stroke:none" />
    <path
       d="m 371.42857,450.93362 a 157.14285,175.71428 0 0 1 -0.0477,4.32896 l -157.09516,-4.32896 z"
       transform="matrix(-0.95860788,1.2696703,-1.1354776,-0.85729164,1906.4506,477.45591)"
       id="use5467"
       style="fill:#01ff2a;fill-opacity:1;stroke:none" />
    <path
       d="m 371.42857,450.93362 a 157.14285,175.71428 0 0 1 -0.0477,4.32896 l -157.09516,-4.32896 z"
       transform="matrix(-0.98959693,1.2456684,-1.1140124,-0.88500542,1903.4118,495.09626)"
       id="use5469"
       style="fill:#01ff30;fill-opacity:1;stroke:none" />
    <path
       d="m 371.42857,450.93362 a 157.14285,175.71428 0 0 1 -0.0477,4.32896 l -157.09516,-4.32896 z"
       transform="matrix(-1.0199852,1.2209103,-1.091871,-0.91218197,1899.9393,512.65639)"
       id="use5471"
       style="fill:#01ff36;fill-opacity:1;stroke:none" />
    <path
       d="m 371.42857,450.93362 a 157.14285,175.71428 0 0 1 -0.0477,4.32896 l -157.09516,-4.32896 z"
       transform="matrix(-1.0497544,1.195411,-1.0690668,-0.93880479,1896.0351,530.12565)"
       id="use5473"
       style="fill:#01ff3c;fill-opacity:1;stroke:none" />
    <path
       d="m 371.42857,450.93362 a 157.14285,175.71428 0 0 1 -0.0477,4.32896 l -157.09516,-4.32896 z"
       transform="matrix(-1.0788863,1.1691861,-1.0456136,-0.96485771,1891.7018,547.49341)"
       id="use5475"
       style="fill:#01ff42;fill-opacity:1;stroke:none" />
    <path
       d="m 371.42857,450.93362 a 157.14285,175.71428 0 0 1 -0.0477,4.32896 l -157.09516,-4.32896 z"
       transform="matrix(-1.1073633,1.1422514,-1.0215257,-0.99032494,1886.942,564.74914)"
       id="use5477"
       style="fill:#01ff48;fill-opacity:1;stroke:none" />
    <path
       d="m 371.42857,450.93362 a 157.14285,175.71428 0 0 1 -0.0477,4.32896 l -157.09516,-4.32896 z"
       transform="matrix(-1.1351681,1.1146234,-0.99681769,-1.015191,1881.7585,581.88238)"
       id="use5479"
       style="fill:#01ff4e;fill-opacity:1;stroke:none" />
    <path
       d="m 371.42857,450.93362 a 157.14285,175.71428 0 0 1 -0.0477,4.32896 l -157.09516,-4.32896 z"
       transform="matrix(-1.1622837,1.0863187,-0.97150457,-1.0394408,1876.1545,598.88272)"
       id="use5481"
       style="fill:#01ff54;fill-opacity:1;stroke:none" />
    <path
       d="m 371.42857,450.93362 a 157.14285,175.71428 0 0 1 -0.0477,4.32896 l -157.09516,-4.32896 z"
       transform="matrix(-1.1886938,1.0573546,-0.94560171,-1.0630596,1870.1333,615.73983)"
       id="use5483"
       style="fill:#01ff5a;fill-opacity:1;stroke:none" />
    <path
       d="m 371.42857,450.93362 a 157.14285,175.71428 0 0 1 -0.0477,4.32896 l -157.09516,-4.32896 z"
       transform="matrix(-1.2143824,1.0277486,-0.91912482,-1.0860331,1863.6987,632.44348)"
       id="use5485"
       style="fill:#01ff61;fill-opacity:1;stroke:none" />
    <path
       d="m 371.42857,450.93362 a 157.14285,175.71428 0 0 1 -0.0477,4.32896 l -157.09516,-4.32896 z"
       transform="matrix(-1.2393337,0.99751876,-0.89208999,-1.1083473,1856.8545,648.98354)"
       id="use5487"
       style="fill:#01ff67;fill-opacity:1;stroke:none" />
    <path
       d="m 371.42857,450.93362 a 157.14285,175.71428 0 0 1 -0.0477,4.32896 l -157.09516,-4.32896 z"
       transform="matrix(-1.2635328,0.96668336,-0.86451362,-1.1299887,1849.6049,665.34996)"
       id="use5489"
       style="fill:#01ff6d;fill-opacity:1;stroke:none" />
    <path
       d="m 371.42857,450.93362 a 157.14285,175.71428 0 0 1 -0.0477,4.32896 l -157.09516,-4.32896 z"
       transform="matrix(-1.2869648,0.93526116,-0.83641246,-1.1509442,1841.9543,681.53281)"
       id="use5491"
       style="fill:#01ff73;fill-opacity:1;stroke:none" />
    <path
       d="m 371.42857,450.93362 a 157.14285,175.71428 0 0 1 -0.0477,4.32896 l -157.09516,-4.32896 z"
       transform="matrix(-1.3096155,0.90327121,-0.80780356,-1.1712009,1833.9072,697.52227)"
       id="use5493"
       style="fill:#01ff79;fill-opacity:1;stroke:none" />
    <path
       d="m 371.42857,450.93362 a 157.14285,175.71428 0 0 1 -0.0477,4.32896 l -157.09516,-4.32896 z"
       transform="matrix(-1.3314713,0.87073295,-0.7787043,-1.1907468,1825.4689,713.30863)"
       id="use5495"
       style="fill:#01ff7f;fill-opacity:1;stroke:none" />
    <path
       d="m 371.42857,450.93362 a 157.14285,175.71428 0 0 1 -0.0477,4.32896 l -157.09516,-4.32896 z"
       transform="matrix(-1.3525189,0.83766611,-0.74913233,-1.2095698,1816.644,728.8823)"
       id="use5497"
       style="fill:#01ff85;fill-opacity:1;stroke:none" />
    <path
       d="m 371.42857,450.93362 a 157.14285,175.71428 0 0 1 -0.0477,4.32896 l -157.09516,-4.32896 z"
       transform="matrix(-1.3727453,0.80409077,-0.7191056,-1.2276585,1807.4382,744.23383)"
       id="use5499"
       style="fill:#01ff8b;fill-opacity:1;stroke:none" />
    <path
       d="m 371.42857,450.93362 a 157.14285,175.71428 0 0 1 -0.0477,4.32896 l -157.09516,-4.32896 z"
       transform="matrix(-1.3921385,0.77002732,-0.68864235,-1.245002,1797.857,759.3539)"
       id="use5501"
       style="fill:#01ff91;fill-opacity:1;stroke:none" />
    <path
       d="m 371.42857,450.93362 a 157.14285,175.71428 0 0 1 -0.0477,4.32896 l -157.09516,-4.32896 z"
       transform="matrix(-1.4106866,0.73549643,-0.65776107,-1.2615897,1787.9061,774.23336)"
       id="use5503"
       style="fill:#01ff97;fill-opacity:1;stroke:none" />
    <path
       d="m 371.42857,450.93362 a 157.14285,175.71428 0 0 1 -0.0477,4.32896 l -157.09516,-4.32896 z"
       transform="matrix(-1.4283784,0.70051907,-0.6264805,-1.2774116,1777.5918,788.86313)"
       id="use5505"
       style="fill:#01ff9d;fill-opacity:1;stroke:none" />
    <path
       d="m 371.42857,450.93362 a 157.14285,175.71428 0 0 1 -0.0477,4.32896 l -157.09516,-4.32896 z"
       transform="matrix(-1.445203,0.66511646,-0.59481962,-1.2924581,1766.9202,803.23435)"
       id="use5507"
       style="fill:#01ffa4;fill-opacity:1;stroke:none" />
    <path
       d="m 371.42857,450.93362 a 157.14285,175.71428 0 0 1 -0.0477,4.32896 l -157.09516,-4.32896 z"
       transform="matrix(-1.4611504,0.62931009,-0.56279767,-1.30672,1755.8976,817.3383)"
       id="use5509"
       style="fill:#01ffaa;fill-opacity:1;stroke:none" />
    <path
       d="m 371.42857,450.93362 a 157.14285,175.71428 0 0 1 -0.0477,4.32896 l -157.09516,-4.32896 z"
       transform="matrix(-1.4762108,0.59312171,-0.53043408,-1.3201886,1744.5311,831.16642)"
       id="use5511"
       style="fill:#01ffb0;fill-opacity:1;stroke:none" />
    <path
       d="m 371.42857,450.93362 a 157.14285,175.71428 0 0 1 -0.0477,4.32896 l -157.09516,-4.32896 z"
       transform="matrix(-1.4903751,0.55657328,-0.49774848,-1.3328558,1732.8273,844.71031)"
       id="use5513"
       style="fill:#01ffb6;fill-opacity:1;stroke:none" />
    <path
       d="m 371.42857,450.93362 a 157.14285,175.71428 0 0 1 -0.0477,4.32896 l -157.09516,-4.32896 z"
       transform="matrix(-1.5036347,0.519687,-0.46476076,-1.344714,1720.7933,857.96176)"
       id="use5515"
       style="fill:#01ffbc;fill-opacity:1;stroke:none" />
    <path
       d="m 371.42857,450.93362 a 157.14285,175.71428 0 0 1 -0.0477,4.32896 l -157.09516,-4.32896 z"
       transform="matrix(-1.5159814,0.48248523,-0.43149088,-1.3557558,1708.4365,870.9127)"
       id="use5517"
       style="fill:#01ffc2;fill-opacity:1;stroke:none" />
    <path
       d="m 371.42857,450.93362 a 157.14285,175.71428 0 0 1 -0.0477,4.32896 l -157.09516,-4.32896 z"
       transform="matrix(-1.527408,0.44499059,-0.39795908,-1.3659747,1695.7645,883.55528)"
       id="use5519"
       style="fill:#01ffc8;fill-opacity:1;stroke:none" />
    <path
       d="m 371.42857,450.93362 a 157.14285,175.71428 0 0 1 -0.0477,4.32896 l -157.09516,-4.32896 z"
       transform="matrix(-1.5379073,0.40722581,-0.3641857,-1.3753643,1682.7848,895.88185)"
       id="use5521"
       style="fill:#01ffce;fill-opacity:1;stroke:none" />
    <path
       d="m 371.42857,450.93362 a 157.14285,175.71428 0 0 1 -0.0477,4.32896 l -157.09516,-4.32896 z"
       transform="matrix(-1.5474731,0.36921384,-0.33019125,-1.3839191,1669.5053,907.8849)"
       id="use5523"
       style="fill:#01ffd4;fill-opacity:1;stroke:none" />
    <path
       d="m 371.42857,450.93362 a 157.14285,175.71428 0 0 1 -0.0477,4.32896 l -157.09516,-4.32896 z"
       transform="matrix(-1.5560995,0.33097772,-0.29599635,-1.3916337,1655.9342,919.55713)"
       id="use5525"
       style="fill:#01ffda;fill-opacity:1;stroke:none" />
    <path
       d="m 371.42857,450.93362 a 157.14285,175.71428 0 0 1 -0.0477,4.32896 l -157.09516,-4.32896 z"
       transform="matrix(-1.5637812,0.29254071,-0.26162178,-1.3985036,1642.0796,930.8915)"
       id="use5527"
       style="fill:#01ffe1;fill-opacity:1;stroke:none" />
    <path
       d="m 371.42857,450.93362 a 157.14285,175.71428 0 0 1 -0.0477,4.32896 l -157.09516,-4.32896 z"
       transform="matrix(-1.5705137,0.2539261,-0.22708839,-1.4045245,1627.9501,941.88109)"
       id="use5529"
       style="fill:#01ffe7;fill-opacity:1;stroke:none" />
    <path
       d="m 371.42857,450.93362 a 157.14285,175.71428 0 0 1 -0.0477,4.32896 l -157.09516,-4.32896 z"
       transform="matrix(-1.5762928,0.21515735,-0.19241715,-1.4096928,1613.5541,952.51926)"
       id="use5531"
       style="fill:#01ffed;fill-opacity:1;stroke:none" />
    <path
       d="m 371.42857,450.93362 a 157.14285,175.71428 0 0 1 -0.0477,4.32896 l -157.09516,-4.32896 z"
       transform="matrix(-1.5811151,0.176258,-0.15762911,-1.4140054,1598.9003,962.79952)"
       id="use5533"
       style="fill:#01fff3;fill-opacity:1;stroke:none" />
    <path
       d="m 371.42857,450.93362 a 157.14285,175.71428 0 0 1 -0.0477,4.32896 l -157.09516,-4.32896 z"
       transform="matrix(-1.5849775,0.13725164,-0.12274538,-1.4174596,1583.9977,972.71565)"
       id="use5535"
       style="fill:#01fff9;fill-opacity:1;stroke:none" />
    <path
       d="m 371.42857,450.93362 a 157.14285,175.71428 0 0 1 -0.0477,4.32896 l -157.09516,-4.32896 z"
       transform="matrix(-1.5878778,0.09816196,-0.08778712,-1.4200534,1568.8553,982.26162)"
       id="use5537"
       style="fill:#01ffff;fill-opacity:1;stroke:none" />
    <path
       d="m 371.42857,450.93362 a 157.14285,175.71428 0 0 1 -0.0477,4.32896 l -157.09516,-4.32896 z"
       transform="matrix(-1.5898142,0.0590127,-0.05277559,-1.4217851,1553.4823,991.43165)"
       id="use5539"
       style="fill:#01f9ff;fill-opacity:1;stroke:none" />
    <path
       d="m 371.42857,450.93362 a 157.14285,175.71428 0 0 1 -0.0477,4.32896 l -157.09516,-4.32896 z"
       transform="matrix(-1.5907855,0.01982761,-0.01773201,-1.4226538,1537.8882,1000.2202)"
       id="use5541"
       style="fill:#01f3ff;fill-opacity:1;stroke:none" />
    <path
       d="m 371.42857,450.93362 a 157.14285,175.71428 0 0 1 -0.0477,4.32896 l -157.09516,-4.32896 z"
       transform="matrix(-1.5907912,-0.01936951,0.01732233,-1.4226588,1522.0823,1008.6218)"
       id="use5543"
       style="fill:#01edff;fill-opacity:1;stroke:none" />
    <path
       d="m 371.42857,450.93362 a 157.14285,175.71428 0 0 1 -0.0477,4.32896 l -157.09516,-4.32896 z"
       transform="matrix(-1.5898311,-0.05855486,0.05236613,-1.4218003,1506.0741,1016.6315)"
       id="use5545"
       style="fill:#01e7ff;fill-opacity:1;stroke:none" />
    <path
       d="m 371.42857,450.93362 a 157.14285,175.71428 0 0 1 -0.0477,4.32896 l -157.09516,-4.32896 z"
       transform="matrix(-1.587906,-0.09770468,0.08737817,-1.4200786,1489.8734,1024.2444)"
       id="use5547"
       style="fill:#01e1ff;fill-opacity:1;stroke:none" />
    <path
       d="m 371.42857,450.93362 a 157.14285,175.71428 0 0 1 -0.0477,4.32896 l -157.09516,-4.32896 z"
       transform="matrix(-1.585017,-0.13679519,0.12233717,-1.4174949,1473.4902,1031.4559)"
       id="use5549"
       style="fill:#01daff;fill-opacity:1;stroke:none" />
    <path
       d="m 371.42857,450.93362 a 157.14285,175.71428 0 0 1 -0.0477,4.32896 l -157.09516,-4.32896 z"
       transform="matrix(-1.5811658,-0.17580265,0.15722189,-1.4140508,1456.9342,1038.2615)"
       id="use5551"
       style="fill:#01d4ff;fill-opacity:1;stroke:none" />
    <path
       d="m 371.42857,450.93362 a 157.14285,175.71428 0 0 1 -0.0477,4.32896 l -157.09516,-4.32896 z"
       transform="matrix(-1.5763547,-0.2147034,0.19201118,-1.4097482,1440.2156,1044.6572)"
       id="use5553"
       style="fill:#01ceff;fill-opacity:1;stroke:none" />
    <path
       d="m 371.42857,450.93362 a 157.14285,175.71428 0 0 1 -0.0477,4.32896 l -157.09516,-4.32896 z"
       transform="matrix(-1.5705868,-0.25347382,0.22668391,-1.4045899,1423.3445,1050.6391)"
       id="use5555"
       style="fill:#01c8ff;fill-opacity:1;stroke:none" />
    <path
       d="m 371.42857,450.93362 a 157.14285,175.71428 0 0 1 -0.0477,4.32896 l -157.09516,-4.32896 z"
       transform="matrix(-1.5638654,-0.29209035,0.26121903,-1.3985789,1406.3312,1056.2035)"
       id="use5557"
       style="fill:#01c2ff;fill-opacity:1;stroke:none" />
    <path
       d="m 371.42857,450.93362 a 157.14285,175.71428 0 0 1 -0.0477,4.32896 l -157.09516,-4.32896 z"
       transform="matrix(-1.5561947,-0.3305296,0.29559559,-1.3917189,1389.1859,1061.3471)"
       id="use5559"
       style="fill:#01bcff;fill-opacity:1;stroke:none" />
    <path
       d="m 371.42857,450.93362 a 157.14285,175.71428 0 0 1 -0.0477,4.32896 l -157.09516,-4.32896 z"
       transform="matrix(-1.5475793,-0.36876818,0.3297927,-1.3840141,1371.9191,1066.0668)"
       id="use5561"
       style="fill:#01b6ff;fill-opacity:1;stroke:none" />
    <path
       d="m 371.42857,450.93362 a 157.14285,175.71428 0 0 1 -0.0477,4.32896 l -157.09516,-4.32896 z"
       transform="matrix(-1.5380245,-0.4067829,0.36378961,-1.3754692,1354.5413,1070.3596)"
       id="use5563"
       style="fill:#01b0ff;fill-opacity:1;stroke:none" />
    <path
       d="m 371.42857,450.93362 a 157.14285,175.71428 0 0 1 -0.0477,4.32896 l -157.09516,-4.32896 z"
       transform="matrix(-1.5275361,-0.4445507,0.39756569,-1.3660892,1337.063,1074.2229)"
       id="use5565"
       style="fill:#01aaff;fill-opacity:1;stroke:none" />
    <path
       d="m 371.42857,450.93362 a 157.14285,175.71428 0 0 1 -0.0477,4.32896 l -157.09516,-4.32896 z"
       transform="matrix(-1.5161203,-0.48204864,0.43110043,-1.35588,1319.4948,1077.6546)"
       id="use5567"
       style="fill:#01a4ff;fill-opacity:1;stroke:none" />
    <path
       d="m 371.42857,450.93362 a 157.14285,175.71428 0 0 1 -0.0477,4.32896 l -157.09516,-4.32896 z"
       transform="matrix(-1.5037843,-0.51925396,0.46437348,-1.3448478,1301.8475,1080.6523)"
       id="use5569"
       style="fill:#019dff;fill-opacity:1;stroke:none" />
    <path
       d="m 371.42857,450.93362 a 157.14285,175.71428 0 0 1 -0.0477,4.32896 l -157.09516,-4.32896 z"
       transform="matrix(-1.4905353,-0.55614407,0.49736464,-1.3329991,1284.1316,1083.2144)"
       id="use5571"
       style="fill:#0197ff;fill-opacity:1;stroke:none" />
    <path
       d="m 371.42857,450.93362 a 157.14285,175.71428 0 0 1 -0.0477,4.32896 l -157.09516,-4.32896 z"
       transform="matrix(-1.4763816,-0.59269657,0.53005387,-1.3203413,1266.358,1085.3392)"
       id="use5573"
       style="fill:#0191ff;fill-opacity:1;stroke:none" />
    <path
       d="m 371.42857,450.93362 a 157.14285,175.71428 0 0 1 -0.0477,4.32896 l -157.09516,-4.32896 z"
       transform="matrix(-1.4613316,-0.62888928,0.56242133,-1.306882,1248.5374,1087.0256)"
       id="use5575"
       style="fill:#018bff;fill-opacity:1;stroke:none" />
    <path
       d="m 371.42857,450.93362 a 157.14285,175.71428 0 0 1 -0.0477,4.32896 l -157.09516,-4.32896 z"
       transform="matrix(-1.4453945,-0.66470024,0.5944474,-1.2926293,1230.6806,1088.2723)"
       id="use5577"
       style="fill:#0185ff;fill-opacity:1;stroke:none" />
    <path
       d="m 371.42857,450.93362 a 157.14285,175.71428 0 0 1 -0.0477,4.32896 l -157.09516,-4.32896 z"
       transform="matrix(-1.4285801,-0.70010769,0.6261126,-1.277592,1212.7987,1089.0787)"
       id="use5579"
       style="fill:#017fff;fill-opacity:1;stroke:none" />
    <path
       d="m 371.42857,450.93362 a 157.14285,175.71428 0 0 1 -0.0477,4.32896 l -157.09516,-4.32896 z"
       transform="matrix(-1.4108984,-0.73509015,0.65739772,-1.2617791,1194.9022,1089.4445)"
       id="use5581"
       style="fill:#0179ff;fill-opacity:1;stroke:none" />
    <path
       d="m 371.42857,450.93362 a 157.14285,175.71428 0 0 1 -0.0477,4.32896 l -157.09516,-4.32896 z"
       transform="matrix(-1.3923602,-0.76962638,0.68828379,-1.2452003,1177.0022,1089.3691)"
       id="use5583"
       style="fill:#0173ff;fill-opacity:1;stroke:none" />
    <path
       d="m 371.42857,450.93362 a 157.14285,175.71428 0 0 1 -0.0477,4.32896 l -157.09516,-4.32896 z"
       transform="matrix(-1.3729769,-0.80369541,0.71875203,-1.2278655,1159.1095,1088.8529)"
       id="use5585"
       style="fill:#016dff;fill-opacity:1;stroke:none" />
    <path
       d="m 371.42857,450.93362 a 157.14285,175.71428 0 0 1 -0.0477,4.32896 l -157.09516,-4.32896 z"
       transform="matrix(-1.35276,-0.83727658,0.74878396,-1.2097854,1141.2349,1087.8958)"
       id="use5587"
       style="fill:#0167ff;fill-opacity:1;stroke:none" />
    <path
       d="m 371.42857,450.93362 a 157.14285,175.71428 0 0 1 -0.0477,4.32896 l -157.09516,-4.32896 z"
       transform="matrix(-1.331722,-0.87034948,0.77836135,-1.190971,1123.3893,1086.4988)"
       id="use5589"
       style="fill:#0161ff;fill-opacity:1;stroke:none" />
    <path
       d="m 371.42857,450.93362 a 157.14285,175.71428 0 0 1 -0.0477,4.32896 l -157.09516,-4.32896 z"
       transform="matrix(-1.3098756,-0.90289403,0.80746625,-1.1714335,1105.5836,1084.6626)"
       id="use5591"
       style="fill:#015aff;fill-opacity:1;stroke:none" />
    <path
       d="m 371.42857,450.93362 a 157.14285,175.71428 0 0 1 -0.0477,4.32896 l -157.09516,-4.32896 z"
       transform="matrix(-1.287234,-0.93489051,0.83608098,-1.151185,1087.8285,1082.3882)"
       id="use5593"
       style="fill:#0154ff;fill-opacity:1;stroke:none" />
    <path
       d="m 371.42857,450.93362 a 157.14285,175.71428 0 0 1 -0.0477,4.32896 l -157.09516,-4.32896 z"
       transform="matrix(-1.2638111,-0.96631946,0.86418817,-1.1302376,1070.1347,1079.6771)"
       id="use5595"
       style="fill:#014eff;fill-opacity:1;stroke:none" />
    <path
       d="m 371.42857,450.93362 a 157.14285,175.71428 0 0 1 -0.0477,4.32896 l -157.09516,-4.32896 z"
       transform="matrix(-1.2396209,-0.99716181,0.89177076,-1.1086041,1052.5132,1076.531)"
       id="use5597"
       style="fill:#0148ff;fill-opacity:1;stroke:none" />
    <path
       d="m 371.42857,450.93362 a 157.14285,175.71428 0 0 1 -0.0477,4.32896 l -157.09516,-4.32896 z"
       transform="matrix(-1.2146783,-1.0273989,0.91881202,-1.0862977,1034.9746,1072.9516)"
       id="use5599"
       style="fill:#0142ff;fill-opacity:1;stroke:none" />
    <path
       d="m 371.42857,450.93362 a 157.14285,175.71428 0 0 1 -0.0477,4.32896 l -157.09516,-4.32896 z"
       transform="matrix(-1.1889983,-1.0570122,0.94529553,-1.0633319,1017.5294,1068.9412)"
       id="use5601"
       style="fill:#013cff;fill-opacity:1;stroke:none" />
    <path
       d="m 371.42857,450.93362 a 157.14285,175.71428 0 0 1 -0.0477,4.32896 l -157.09516,-4.32896 z"
       transform="matrix(-1.1625965,-1.0859839,0.97120519,-1.0397205,1000.1883,1064.5023)"
       id="use5603"
       style="fill:#0136ff;fill-opacity:1;stroke:none" />
    <path
       d="m 371.42857,450.93362 a 157.14285,175.71428 0 0 1 -0.0477,4.32896 l -157.09516,-4.32896 z"
       transform="matrix(-1.135489,-1.1142964,0.9965253,-1.015478,982.96187,1059.6375)"
       id="use5605"
       style="fill:#0130ff;fill-opacity:1;stroke:none" />
    <path
       d="m 371.42857,450.93362 a 157.14285,175.71428 0 0 1 -0.0477,4.32896 l -157.09516,-4.32896 z"
       transform="matrix(-1.1076922,-1.1419325,1.0212405,-0.99061908,965.86054,1054.3498)"
       id="use5607"
       style="fill:#012aff;fill-opacity:1;stroke:none" />
    <path
       d="m 371.42857,450.93362 a 157.14285,175.71428 0 0 1 -0.0477,4.32896 l -157.09516,-4.32896 z"
       transform="matrix(-1.079223,-1.1688753,1.0453357,-0.9651588,948.89467,1048.6423)"
       id="use5609"
       style="fill:#0124ff;fill-opacity:1;stroke:none" />
    <path
       d="m 371.42857,450.93362 a 157.14285,175.71428 0 0 1 -0.0477,4.32896 l -157.09516,-4.32896 z"
       transform="matrix(-1.0500986,-1.1951086,1.0687964,-0.93911262,932.07453,1042.5187)"
       id="use5611"
       style="fill:#011dff;fill-opacity:1;stroke:none" />
    <path
       d="m 371.42857,450.93362 a 157.14285,175.71428 0 0 1 -0.0477,4.32896 l -157.09516,-4.32896 z"
       transform="matrix(-1.0203368,-1.2206165,1.0916083,-0.91249637,915.41036,1035.9824)"
       id="use5613"
       style="fill:#0117ff;fill-opacity:1;stroke:none" />
    <path
       d="m 371.42857,450.93362 a 157.14285,175.71428 0 0 1 -0.0477,4.32896 l -157.09516,-4.32896 z"
       transform="matrix(-0.98995561,-1.2453833,1.1137575,-0.8853262,898.91225,1029.0377)"
       id="use5615"
       style="fill:#0111ff;fill-opacity:1;stroke:none" />
    <path
       d="m 371.42857,450.93362 a 157.14285,175.71428 0 0 1 -0.0477,4.32896 l -157.09516,-4.32896 z"
       transform="matrix(-0.95897349,-1.2693942,1.1352306,-0.8576186,882.59029,1021.6886)"
       id="use5617"
       style="fill:#010bff;fill-opacity:1;stroke:none" />
    <path
       d="m 371.42857,450.93362 a 157.14285,175.71428 0 0 1 -0.0477,4.32896 l -157.09516,-4.32896 z"
       transform="matrix(-0.92740921,-1.2926345,1.1560146,-0.82939039,866.45433,1013.9397)"
       id="use5619"
       style="fill:#0105ff;fill-opacity:1;stroke:none" />
    <path
       d="m 371.42857,450.93362 a 157.14285,175.71428 0 0 1 -0.0477,4.32896 l -157.09516,-4.32896 z"
       transform="matrix(-0.89528196,-1.3150901,1.1760969,-0.8006587,850.51411,1005.7955)"
       id="use5621"
       style="fill:#0301ff;fill-opacity:1;stroke:none" />
    <path
       d="m 371.42857,450.93362 a 157.14285,175.71428 0 0 1 -0.0477,4.32896 l -157.09516,-4.32896 z"
       transform="matrix(-0.86261125,-1.3367474,1.1954652,-0.77144099,834.77942,997.26106)"
       id="use5623"
       style="fill:#0901ff;fill-opacity:1;stroke:none" />
    <path
       d="m 371.42857,450.93362 a 157.14285,175.71428 0 0 1 -0.0477,4.32896 l -157.09516,-4.32896 z"
       transform="matrix(-0.8294169,-1.3575932,1.2141078,-0.74175498,819.2598,988.34158)"
       id="use5625"
       style="fill:#0f01ff;fill-opacity:1;stroke:none" />
    <path
       d="m 371.42857,450.93362 a 157.14285,175.71428 0 0 1 -0.0477,4.32896 l -157.09516,-4.32896 z"
       transform="matrix(-0.79571905,-1.3776149,1.2320134,-0.7116187,803.96451,979.04256)"
       id="use5627"
       style="fill:#1501ff;fill-opacity:1;stroke:none" />
    <path
       d="m 371.42857,450.93362 a 157.14285,175.71428 0 0 1 -0.0477,4.32896 l -157.09516,-4.32896 z"
       transform="matrix(-0.76153817,-1.3968004,1.2491711,-0.68105042,788.90309,969.36944)"
       id="use5629"
       style="fill:#1b01ff;fill-opacity:1;stroke:none" />
    <path
       d="m 371.42857,450.93362 a 157.14285,175.71428 0 0 1 -0.0477,4.32896 l -157.09516,-4.32896 z"
       transform="matrix(-0.72689501,-1.415138,1.2655706,-0.65006873,774.08451,959.32817)"
       id="use5631"
       style="fill:#2201ff;fill-opacity:1;stroke:none" />
    <path
       d="m 371.42857,450.93362 a 157.14285,175.71428 0 0 1 -0.0477,4.32896 l -157.09516,-4.32896 z"
       transform="matrix(-0.69181058,-1.4326164,1.2812018,-0.61869241,759.51781,948.92498)"
       id="use5633"
       style="fill:#2801ff;fill-opacity:1;stroke:none" />
    <path
       d="m 371.42857,450.93362 a 157.14285,175.71428 0 0 1 -0.0477,4.32896 l -157.09516,-4.32896 z"
       transform="matrix(-0.65630621,-1.4492253,1.2960552,-0.58694054,745.21178,938.16604)"
       id="use5635"
       style="fill:#2e01ff;fill-opacity:1;stroke:none" />
    <path
       d="m 371.42857,450.93362 a 157.14285,175.71428 0 0 1 -0.0477,4.32896 l -157.09516,-4.32896 z"
       transform="matrix(-0.62040343,-1.4649544,1.3101219,-0.55483236,731.17522,927.05791)"
       id="use5637"
       style="fill:#3401ff;fill-opacity:1;stroke:none" />
    <path
       d="m 371.42857,450.93362 a 157.14285,175.71428 0 0 1 -0.0477,4.32896 l -157.09516,-4.32896 z"
       transform="matrix(-0.58412404,-1.4797942,1.3233932,-0.52238738,717.41648,915.60729)"
       id="use5639"
       style="fill:#3a01ff;fill-opacity:1;stroke:none" />
    <path
       d="m 371.42857,450.93362 a 157.14285,175.71428 0 0 1 -0.0477,4.32896 l -157.09516,-4.32896 z"
       transform="matrix(-0.54749006,-1.4937357,1.3358613,-0.48962528,703.94408,903.82125)"
       id="use5641"
       style="fill:#4001ff;fill-opacity:1;stroke:none" />
    <path
       d="m 371.42857,450.93362 a 157.14285,175.71428 0 0 1 -0.0477,4.32896 l -157.09516,-4.32896 z"
       transform="matrix(-0.51052373,-1.5067705,1.3475184,-0.45656596,690.76617,891.70688)"
       id="use5643"
       style="fill:#4601ff;fill-opacity:1;stroke:none" />
    <path
       d="m 371.42857,450.93362 a 157.14285,175.71428 0 0 1 -0.0477,4.32896 l -157.09516,-4.32896 z"
       transform="matrix(-0.47324751,-1.5188906,1.3583575,-0.4232295,677.89075,879.27145)"
       id="use5645"
       style="fill:#4c01ff;fill-opacity:1;stroke:none" />
    <path
       d="m 371.42857,450.93362 a 157.14285,175.71428 0 0 1 -0.0477,4.32896 l -157.09516,-4.32896 z"
       transform="matrix(-0.43568398,-1.5300886,1.368372,-0.3896361,665.32547,866.52262)"
       id="use5647"
       style="fill:#5201ff;fill-opacity:1;stroke:none" />
    <path
       d="m 371.42857,450.93362 a 157.14285,175.71428 0 0 1 -0.0477,4.32896 l -157.09516,-4.32896 z"
       transform="matrix(-0.397856,-1.5403579,1.3775559,-0.35580619,653.07815,853.46813)"
       id="use5649"
       style="fill:#5801ff;fill-opacity:1;stroke:none" />
    <path
       d="m 371.42857,450.93362 a 157.14285,175.71428 0 0 1 -0.0477,4.32896 l -157.09516,-4.32896 z"
       transform="matrix(-0.35978648,-1.549692,1.3859035,-0.32176028,641.15624,840.1159)"
       id="use5651"
       style="fill:#5e01ff;fill-opacity:1;stroke:none" />
    <path
       d="m 371.42857,450.93362 a 157.14285,175.71428 0 0 1 -0.0477,4.32896 l -157.09516,-4.32896 z"
       transform="matrix(-0.32149858,-1.5580855,1.3934099,-0.28751907,629.5668,826.47403)"
       id="use5653"
       style="fill:#6501ff;fill-opacity:1;stroke:none" />
    <path
       d="m 371.42857,450.93362 a 157.14285,175.71428 0 0 1 -0.0477,4.32896 l -157.09516,-4.32896 z"
       transform="matrix(-0.28301551,-1.5655331,1.4000703,-0.25310331,618.31696,812.55068)"
       id="use5655"
       style="fill:#6b01ff;fill-opacity:1;stroke:none" />
    <path
       d="m 371.42857,450.93362 a 157.14285,175.71428 0 0 1 -0.0477,4.32896 l -157.09516,-4.32896 z"
       transform="matrix(-0.24436063,-1.5720304,1.4058809,-0.21853391,607.41365,798.35446)"
       id="use5657"
       style="fill:#7101ff;fill-opacity:1;stroke:none" />
    <path
       d="m 371.42857,450.93362 a 157.14285,175.71428 0 0 1 -0.0477,4.32896 l -157.09516,-4.32896 z"
       transform="matrix(-0.2055574,-1.5775734,1.4108381,-0.18383183,596.86328,783.89388)"
       id="use5659"
       style="fill:#7701ff;fill-opacity:1;stroke:none" />
    <path
       d="m 371.42857,450.93362 a 157.14285,175.71428 0 0 1 -0.0477,4.32896 l -157.09516,-4.32896 z"
       transform="matrix(-0.16662942,-1.5821588,1.4149388,-0.14901818,586.67242,769.17786)"
       id="use5661"
       style="fill:#7d01ff;fill-opacity:1;stroke:none" />
    <path
       d="m 371.42857,450.93362 a 157.14285,175.71428 0 0 1 -0.0477,4.32896 l -157.09516,-4.32896 z"
       transform="matrix(-0.12760026,-1.5857837,1.4181806,-0.11411406,576.8472,754.21513)"
       id="use5663"
       style="fill:#8301ff;fill-opacity:1;stroke:none" />
    <path
       d="m 371.42857,450.93362 a 157.14285,175.71428 0 0 1 -0.0477,4.32896 l -157.09516,-4.32896 z"
       transform="matrix(-0.08849367,-1.588446,1.4205615,-0.07914068,567.39358,739.01502)"
       id="use5665"
       style="fill:#8901ff;fill-opacity:1;stroke:none" />
    <path
       d="m 371.42857,450.93362 a 157.14285,175.71428 0 0 1 -0.0477,4.32896 l -157.09516,-4.32896 z"
       transform="matrix(-0.04933334,-1.590144,1.4220801,-0.04411925,558.31731,723.58651)"
       id="use5667"
       style="fill:#8f01ff;fill-opacity:1;stroke:none" />
    <path
       d="m 371.42857,450.93362 a 157.14285,175.71428 0 0 1 -0.0477,4.32896 l -157.09516,-4.32896 z"
       transform="matrix(-0.01014306,-1.5908768,1.4227354,-0.00907103,549.6239,707.93915)"
       id="use5669"
       style="fill:#9501ff;fill-opacity:1;stroke:none" />
    <path
       d="m 371.42857,450.93362 a 157.14285,175.71428 0 0 1 -0.0477,4.32896 l -157.09516,-4.32896 z"
       transform="matrix(0.02905336,-1.5906438,1.422527,0.02598268,541.31861,692.08224)"
       id="use5671"
       style="fill:#9b01ff;fill-opacity:1;stroke:none" />
    <path
       d="m 371.42857,450.93362 a 157.14285,175.71428 0 0 1 -0.0477,4.32896 l -157.09516,-4.32896 z"
       transform="matrix(0.06823215,-1.5894452,1.4214551,0.06102063,533.4065,676.02566)"
       id="use5673"
       style="fill:#a201ff;fill-opacity:1;stroke:none" />
    <path
       d="m 371.42857,450.93362 a 157.14285,175.71428 0 0 1 -0.0477,4.32896 l -157.09516,-4.32896 z"
       transform="matrix(0.10736952,-1.5872818,1.4195204,0.09602152,525.89237,659.77899)"
       id="use5675"
       style="fill:#a801ff;fill-opacity:1;stroke:none" />
    <path
       d="m 371.42857,450.93362 a 157.14285,175.71428 0 0 1 -0.0477,4.32896 l -157.09516,-4.32896 z"
       transform="matrix(0.14644172,-1.5841548,1.4167239,0.13096414,518.78078,643.35209)"
       id="use5677"
       style="fill:#ae01ff;fill-opacity:1;stroke:none" />
    <path
       d="m 371.42857,450.93362 a 157.14285,175.71428 0 0 1 -0.0477,4.32896 l -157.09516,-4.32896 z"
       transform="matrix(0.18542501,-1.5800662,1.4130674,0.16582725,512.07605,626.75501)"
       id="use5679"
       style="fill:#b401ff;fill-opacity:1;stroke:none" />
    <path
       d="m 371.42857,450.93362 a 157.14285,175.71428 0 0 1 -0.0477,4.32896 l -157.09516,-4.32896 z"
       transform="matrix(0.22429575,-1.5750185,1.4085532,0.20058971,505.78224,609.99786)"
       id="use5681"
       style="fill:#ba01ff;fill-opacity:1;stroke:none" />
    <path
       d="m 371.42857,450.93362 a 157.14285,175.71428 0 0 1 -0.0477,4.32896 l -157.09516,-4.32896 z"
       transform="matrix(0.26303033,-1.5690146,1.4031838,0.23523039,499.90318,593.09065)"
       id="use5683"
       style="fill:#c001ff;fill-opacity:1;stroke:none" />
    <path
       d="m 371.42857,450.93362 a 157.14285,175.71428 0 0 1 -0.0477,4.32896 l -157.09516,-4.32896 z"
       transform="matrix(0.30160525,-1.5620583,1.3969627,0.26972828,494.44243,576.04375)"
       id="use5685"
       style="fill:#c601ff;fill-opacity:1;stroke:none" />
    <path
       d="m 371.42857,450.93362 a 157.14285,175.71428 0 0 1 -0.0477,4.32896 l -157.09516,-4.32896 z"
       transform="matrix(0.33999707,-1.5541537,1.3898936,0.30406243,489.40332,558.86751)"
       id="use5687"
       style="fill:#cc01ff;fill-opacity:1;stroke:none" />
    <path
       d="m 371.42857,450.93362 a 157.14285,175.71428 0 0 1 -0.0477,4.32896 l -157.09516,-4.32896 z"
       transform="matrix(0.3781825,-1.5453057,1.3819808,0.338212,484.78889,541.57224)"
       id="use5689"
       style="fill:#d201ff;fill-opacity:1;stroke:none" />
    <path
       d="m 371.42857,450.93362 a 157.14285,175.71428 0 0 1 -0.0477,4.32896 l -157.09516,-4.32896 z"
       transform="matrix(0.41613836,-1.5355197,1.373229,0.37215627,480.60195,524.16867)"
       id="use5691"
       style="fill:#d801ff;fill-opacity:1;stroke:none" />
    <path
       d="m 371.42857,450.93362 a 157.14285,175.71428 0 0 1 -0.0477,4.32896 l -157.09516,-4.32896 z"
       transform="matrix(0.45384161,-1.5248015,1.3636437,0.40587463,476.84505,506.66713)"
       id="use5693"
       style="fill:#de01ff;fill-opacity:1;stroke:none" />
    <path
       d="m 371.42857,450.93362 a 157.14285,175.71428 0 0 1 -0.0477,4.32896 l -157.09516,-4.32896 z"
       transform="matrix(0.49126936,-1.5131577,1.3532305,0.4393466,473.52045,489.0784)"
       id="use5695"
       style="fill:#e501ff;fill-opacity:1;stroke:none" />
    <path
       d="m 371.42857,450.93362 a 157.14285,175.71428 0 0 1 -0.0477,4.32896 l -157.09516,-4.32896 z"
       transform="matrix(0.52839888,-1.5005953,1.3419959,0.47255187,470.6302,471.41315)"
       id="use5697"
       style="fill:#eb01ff;fill-opacity:1;stroke:none" />
    <path
       d="m 371.42857,450.93362 a 157.14285,175.71428 0 0 1 -0.0477,4.32896 l -157.09516,-4.32896 z"
       transform="matrix(0.56520765,-1.4871221,1.3299466,0.50547028,468.17602,453.68199)"
       id="use5699"
       style="fill:#f101ff;fill-opacity:1;stroke:none" />
    <path
       d="m 371.42857,450.93362 a 157.14285,175.71428 0 0 1 -0.0477,4.32896 l -157.09516,-4.32896 z"
       transform="matrix(0.60167331,-1.4727461,1.31709,0.53808185,466.15941,435.89576)"
       id="use5701"
       style="fill:#f701ff;fill-opacity:1;stroke:none" />
    <path
       d="m 371.42857,450.93362 a 157.14285,175.71428 0 0 1 -0.0477,4.32896 l -157.09516,-4.32896 z"
       transform="matrix(0.63777374,-1.4574761,1.3034339,0.57036679,464.58162,418.06519)"
       id="use5703"
       style="fill:#fd01ff;fill-opacity:1;stroke:none" />
    <path
       d="m 371.42857,450.93362 a 157.14285,175.71428 0 0 1 -0.0477,4.32896 l -157.09516,-4.32896 z"
       transform="matrix(0.67348701,-1.4413213,1.2889866,0.60230548,463.44357,400.20128)"
       id="use5705"
       style="fill:#ff01fb;fill-opacity:1;stroke:none" />
    <path
       d="m 371.42857,450.93362 a 157.14285,175.71428 0 0 1 -0.0477,4.32896 l -157.09516,-4.32896 z"
       transform="matrix(0.70879145,-1.4242916,1.2737567,0.63387856,462.74598,382.3147)"
       id="use5707"
       style="fill:#ff01f5;fill-opacity:1;stroke:none" />
    <path
       d="m 371.42857,450.93362 a 157.14285,175.71428 0 0 1 -0.0477,4.32896 l -157.09516,-4.32896 z"
       transform="matrix(0.74366561,-1.4063972,1.2577537,0.66506683,462.48925,364.41638)"
       id="use5709"
       style="fill:#ff01ef;fill-opacity:1;stroke:none" />
    <path
       d="m 371.42857,450.93362 a 157.14285,175.71428 0 0 1 -0.0477,4.32896 l -157.09516,-4.32896 z"
       transform="matrix(0.77808835,-1.3876492,1.2409871,0.6958514,462.67355,346.51715)"
       id="use5711"
       style="fill:#ff01e9;fill-opacity:1;stroke:none" />
    <path
       d="m 371.42857,450.93362 a 157.14285,175.71428 0 0 1 -0.0477,4.32896 l -157.09516,-4.32896 z"
       transform="matrix(0.81203876,-1.3680588,1.2234673,0.72621356,463.29877,328.62789)"
       id="use5713"
       style="fill:#ff01e3;fill-opacity:1;stroke:none" />
    <path
       d="m 371.42857,450.93362 a 157.14285,175.71428 0 0 1 -0.0477,4.32896 l -157.09516,-4.32896 z"
       transform="matrix(0.84549621,-1.3476379,1.2052047,0.75613486,464.36452,310.75938)"
       id="use5715"
       style="fill:#ff01dc;fill-opacity:1;stroke:none" />
    <path
       d="m 371.42857,450.93362 a 157.14285,175.71428 0 0 1 -0.0477,4.32896 l -157.09516,-4.32896 z"
       transform="matrix(0.87844043,-1.326399,1.1862105,0.78559716,465.87016,292.92266)"
       id="use5717"
       style="fill:#ff01d6;fill-opacity:1;stroke:none" />
    <path
       d="m 371.42857,450.93362 a 157.14285,175.71428 0 0 1 -0.0477,4.32896 l -157.09516,-4.32896 z"
       transform="matrix(0.9108514,-1.3043548,1.1664962,0.81458259,467.81478,275.12847)"
       id="use5719"
       style="fill:#ff01d0;fill-opacity:1;stroke:none" />
    <path
       d="m 371.42857,450.93362 a 157.14285,175.71428 0 0 1 -0.0477,4.32896 l -157.09516,-4.32896 z"
       transform="matrix(0.94270943,-1.2815189,1.1460739,0.84307351,470.19719,257.38752)"
       id="use5721"
       style="fill:#ff01ca;fill-opacity:1;stroke:none" />
    <path
       d="m 371.42857,450.93362 a 157.14285,175.71428 0 0 1 -0.0477,4.32896 l -157.09516,-4.32896 z"
       transform="matrix(0.97399521,-1.257905,1.1249558,0.87105267,473.01595,239.7106)"
       id="use5723"
       style="fill:#ff01c4;fill-opacity:1;stroke:none" />
    <path
       d="m 371.42857,450.93362 a 157.14285,175.71428 0 0 1 -0.0477,4.32896 l -157.09516,-4.32896 z"
       transform="matrix(1.0046897,-1.2335276,1.1031548,0.89850306,476.26935,222.1086)"
       id="use5725"
       style="fill:#ff01be;fill-opacity:1;stroke:none" />
    <path
       d="m 371.42857,450.93362 a 157.14285,175.71428 0 0 1 -0.0477,4.32896 l -157.09516,-4.32896 z"
       transform="matrix(1.0347744,-1.2084013,1.0806842,0.92540801,479.9554,204.5921)"
       id="use5727"
       style="fill:#ff01b8;fill-opacity:1;stroke:none" />
    <path
       d="m 371.42857,450.93362 a 157.14285,175.71428 0 0 1 -0.0477,4.32896 l -157.09516,-4.32896 z"
       transform="matrix(1.0642309,-1.1825415,1.0575575,0.95175122,484.07188,187.17164)"
       id="use5729"
       style="fill:#ff01b2;fill-opacity:1;stroke:none" />
    <path
       d="m 371.42857,450.93362 a 157.14285,175.71428 0 0 1 -0.0477,4.32896 l -157.09516,-4.32896 z"
       transform="matrix(1.0930413,-1.1559639,1.0337889,0.97751667,488.6163,169.85791)"
       id="use5731"
       style="fill:#ff01ac;fill-opacity:1;stroke:none" />
    <path
       d="m 371.42857,450.93362 a 157.14285,175.71428 0 0 1 -0.0477,4.32896 l -157.09516,-4.32896 z"
       transform="matrix(1.1211883,-1.1286845,1.0093927,1.0026887,493.58588,152.66141)"
       id="use5733"
       style="fill:#ff01a6;fill-opacity:1;stroke:none" />
    <path
       d="m 371.42857,450.93362 a 157.14285,175.71428 0 0 1 -0.0477,4.32896 l -157.09516,-4.32896 z"
       transform="matrix(1.1486546,-1.10072,0.98438374,1.0272521,498.9776,135.59255)"
       id="use5735"
       style="fill:#ff019f;fill-opacity:1;stroke:none" />
    <path
       d="m 371.42857,450.93362 a 157.14285,175.71428 0 0 1 -0.0477,4.32896 l -157.09516,-4.32896 z"
       transform="matrix(1.1754236,-1.0720872,0.95877724,1.0511919,504.78821,118.66171)"
       id="use5737"
       style="fill:#ff0199;fill-opacity:1;stroke:none" />
    <path
       d="m 371.42857,450.93362 a 157.14285,175.71428 0 0 1 -0.0477,4.32896 l -157.09516,-4.32896 z"
       transform="matrix(1.2014791,-1.0428037,0.93258873,1.0744936,511.01415,101.87916)"
       id="use5739"
       style="fill:#ff0193;fill-opacity:1;stroke:none" />
    <path
       d="m 371.42857,450.93362 a 157.14285,175.71428 0 0 1 -0.0477,4.32896 l -157.09516,-4.32896 z"
       transform="matrix(1.2268053,-1.0128872,0.90583411,1.097143,517.65168,85.255088)"
       id="use5741"
       style="fill:#ff018d;fill-opacity:1;stroke:none" />
    <path
       d="m 371.42857,450.93362 a 157.14285,175.71428 0 0 1 -0.0477,4.32896 l -157.09516,-4.32896 z"
       transform="matrix(1.2513868,-0.98235579,0.87852961,1.1191264,524.69674,68.799578)"
       id="use5743"
       style="fill:#ff0187;fill-opacity:1;stroke:none" />
    <path
       d="m 371.42857,450.93362 a 157.14285,175.71428 0 0 1 -0.0477,4.32896 l -157.09516,-4.32896 z"
       transform="matrix(1.2752086,-0.95122806,0.8506918,1.1404305,532.14507,52.522631)"
       id="use5745"
       style="fill:#ff0181;fill-opacity:1;stroke:none" />
    <path
       d="m 371.42857,450.93362 a 157.14285,175.71428 0 0 1 -0.0477,4.32896 l -157.09516,-4.32896 z"
       transform="matrix(1.2982563,-0.9195229,0.82233759,1.1610423,539.99215,36.434124)"
       id="use5747"
       style="fill:#ff017b;fill-opacity:1;stroke:none" />
    <path
       d="m 371.42857,450.93362 a 157.14285,175.71428 0 0 1 -0.0477,4.32896 l -157.09516,-4.32896 z"
       transform="matrix(1.3205159,-0.88725953,0.79348417,1.1809492,548.23321,20.543834)"
       id="use5749"
       style="fill:#ff0175;fill-opacity:1;stroke:none" />
    <path
       d="m 371.42857,450.93362 a 157.14285,175.71428 0 0 1 -0.0477,4.32896 l -157.09516,-4.32896 z"
       transform="matrix(1.3419739,-0.85445758,0.76414909,1.2001393,556.86324,4.8613899)"
       id="use5751"
       style="fill:#ff016f;fill-opacity:1;stroke:none" />
    <path
       d="m 371.42857,450.93362 a 157.14285,175.71428 0 0 1 -0.0477,4.32896 l -157.09516,-4.32896 z"
       transform="matrix(1.3626173,-0.82113695,0.73435015,1.2186009,565.877,-10.603694)"
       id="use5753"
       style="fill:#ff0169;fill-opacity:1;stroke:none" />
    <path
       d="m 371.42857,450.93362 a 157.14285,175.71428 0 0 1 -0.0477,4.32896 l -157.09516,-4.32896 z"
       transform="matrix(1.3824335,-0.78731783,0.70410541,1.2363227,575.26904,-25.842)"
       id="use5755"
       style="fill:#ff0163;fill-opacity:1;stroke:none" />
    <path
       d="m 371.42857,450.93362 a 157.14285,175.71428 0 0 1 -0.0477,4.32896 l -157.09516,-4.32896 z"
       transform="matrix(1.4014105,-0.75302079,0.67343326,1.253294,585.03364,-40.844303)"
       id="use5757"
       style="fill:#ff015c;fill-opacity:1;stroke:none" />
    <path
       d="m 371.42857,450.93362 a 157.14285,175.71428 0 0 1 -0.0477,4.32896 l -157.09516,-4.32896 z"
       transform="matrix(1.4195368,-0.71826665,0.64235232,1.2695045,595.16488,-55.601501)"
       id="use5759"
       style="fill:#ff0156;fill-opacity:1;stroke:none" />
    <path
       d="m 371.42857,450.93362 a 157.14285,175.71428 0 0 1 -0.0477,4.32896 l -157.09516,-4.32896 z"
       transform="matrix(1.4368014,-0.68307647,0.61088142,1.2849444,605.6566,-70.10461)"
       id="use5761"
       style="fill:#ff0150;fill-opacity:1;stroke:none" />
    <path
       d="m 371.42857,450.93362 a 157.14285,175.71428 0 0 1 -0.0477,4.32896 l -157.09516,-4.32896 z"
       transform="matrix(1.4531938,-0.64747164,0.5790397,1.2996043,616.50245,-84.344839)"
       id="use5763"
       style="fill:#ff014a;fill-opacity:1;stroke:none" />
    <path
       d="m 371.42857,450.93362 a 157.14285,175.71428 0 0 1 -0.0477,4.32896 l -157.09516,-4.32896 z"
       transform="matrix(1.4687041,-0.61147377,0.54684649,1.3134752,627.69583,-98.31355)"
       id="use5765"
       style="fill:#ff0144;fill-opacity:1;stroke:none" />
    <path
       d="m 371.42857,450.93362 a 157.14285,175.71428 0 0 1 -0.0477,4.32896 l -157.09516,-4.32896 z"
       transform="matrix(1.4833227,-0.57510471,0.51432131,1.3265488,639.22994,-112.00225)"
       id="use5767"
       style="fill:#ff013e;fill-opacity:1;stroke:none" />
    <path
       d="m 371.42857,450.93362 a 157.14285,175.71428 0 0 1 -0.0477,4.32896 l -157.09516,-4.32896 z"
       transform="matrix(1.497041,-0.53838655,0.48148393,1.3388172,651.09781,-125.40265)"
       id="use5769"
       style="fill:#ff0138;fill-opacity:1;stroke:none" />
    <path
       d="m 371.42857,450.93362 a 157.14285,175.71428 0 0 1 -0.0477,4.32896 l -157.09516,-4.32896 z"
       transform="matrix(1.5098505,-0.50134155,0.44835425,1.3502728,663.2922,-138.50658)"
       id="use5771"
       style="fill:#ff0132;fill-opacity:1;stroke:none" />
    <path
       d="m 371.42857,450.93362 a 157.14285,175.71428 0 0 1 -0.0477,4.32896 l -157.09516,-4.32896 z"
       transform="matrix(1.5217434,-0.46399222,0.41495241,1.3609088,675.80573,-151.30612)"
       id="use5773"
       style="fill:#ff012c;fill-opacity:1;stroke:none" />
    <path
       d="m 371.42857,450.93362 a 157.14285,175.71428 0 0 1 -0.0477,4.32896 l -157.09516,-4.32896 z"
       transform="matrix(1.5327126,-0.42636124,0.38129868,1.3707186,688.63078,-163.7935)"
       id="use5775"
       style="fill:#ff0126;fill-opacity:1;stroke:none" />
    <path
       d="m 371.42857,450.93362 a 157.14285,175.71428 0 0 1 -0.0477,4.32896 l -157.09516,-4.32896 z"
       transform="matrix(1.5427513,-0.38847143,0.34741349,1.3796964,701.75959,-175.96111)"
       id="use5777"
       style="fill:#ff011f;fill-opacity:1;stroke:none" />
    <path
       d="m 371.42857,450.93362 a 157.14285,175.71428 0 0 1 -0.0477,4.32896 l -157.09516,-4.32896 z"
       transform="matrix(1.5518536,-0.3503458,0.3133174,1.3878366,715.18419,-187.80159)"
       id="use5779"
       style="fill:#ff0119;fill-opacity:1;stroke:none" />
    <path
       d="m 371.42857,450.93362 a 157.14285,175.71428 0 0 1 -0.0477,4.32896 l -157.09516,-4.32896 z"
       transform="matrix(1.5600138,-0.3120075,0.27903111,1.3951344,728.89641,-199.30774)"
       id="use5781"
       style="fill:#ff0113;fill-opacity:1;stroke:none" />
    <path
       d="m 371.42857,450.93362 a 157.14285,175.71428 0 0 1 -0.0477,4.32896 l -157.09516,-4.32896 z"
       transform="matrix(1.567227,-0.2734798,0.24457545,1.4015852,742.88794,-210.47258)"
       id="use5783"
       style="fill:#ff010d;fill-opacity:1;stroke:none" />
    <path
       d="m 371.42857,450.93362 a 157.14285,175.71428 0 0 1 -0.0477,4.32896 l -157.09516,-4.32896 z"
       transform="matrix(1.5734889,-0.23478609,0.20997131,1.4071852,757.15028,-221.28934)"
       id="use5785"
       style="fill:#ff0107;fill-opacity:1;stroke:none" />
    <path
       d="m 371.42857,450.93362 a 157.14285,175.71428 0 0 1 -0.0477,4.32896 l -157.09516,-4.32896 z"
       transform="matrix(1.5787956,-0.19594986,0.17523972,1.411931,771.67477,-231.75143)"
       id="use5787"
       style="fill:#ff0101;fill-opacity:1;stroke:none" />
    <path
       d="m 371.42857,450.93362 a 157.14285,175.71428 0 0 1 -0.0477,4.32896 l -157.09516,-4.32896 z"
       transform="matrix(1.5831438,-0.15699466,0.14040174,1.4158198,786.45261,-241.85252)"
       id="use5789"
       style="fill:#ff0701;fill-opacity:1;stroke:none" />
    <path
       d="m 371.42857,450.93362 a 157.14285,175.71428 0 0 1 -0.0477,4.32896 l -157.09516,-4.32896 z"
       transform="matrix(1.5865311,-0.11794418,0.10547854,1.418849,801.47483,-251.58648)"
       id="use5791"
       style="fill:#ff0d01;fill-opacity:1;stroke:none" />
    <path
       d="m 371.42857,450.93362 a 157.14285,175.71428 0 0 1 -0.0477,4.32896 l -157.09516,-4.32896 z"
       transform="matrix(1.5889553,-0.07882208,0.0704913,1.421017,816.73228,-260.94738)"
       id="use5793"
       style="fill:#ff1301;fill-opacity:1;stroke:none" />
    <path
       d="m 371.42857,450.93362 a 157.14285,175.71428 0 0 1 -0.0477,4.32896 l -157.09516,-4.32896 z"
       transform="matrix(1.5904149,-0.03965215,0.03546128,1.4223223,832.21572,-269.92956)"
       id="use5795"
       style="fill:#ff1901;fill-opacity:1;stroke:none" />
  </g>
  <rect
     width="50"
     height="116"
     x="412.54727"
     y="244.36217"
     id="rect3522"
     style="fill:url(#linearGradient5392);fill-opacity:1;stroke:none">
    <title
       id="title5656">linear-gradient</title>
  </rect>
  <g
     transform="matrix(0.22850429,0,0,0.22850429,337.2749,248.62376)"
     id="g5126">
    <title
       id="title5652">cups-logo</title>
    <path
       d="m 1006.4447,274.15133 c -4.7962,-2.42536 -7.43617,-5.80751 -8.19815,-10.50305 l -0.56353,-3.47266 4.63088,0 c 3.5101,0 4.6308,0.374 4.6308,1.54545 0,0.85 1.1046,2.65 2.4545,4 2.0159,2.0159 3.4456,2.45455 8,2.45455 6.036,0 9.5455,-2.1975 9.5455,-5.97695 0,-2.8212 -3.2915,-4.58471 -13,-6.96523 -4.675,-1.1463 -9.625,-2.90913 -11,-3.9174 -7.74111,-5.67646 -6.10526,-17.80421 3.0199,-22.38887 4.9579,-2.49091 15.125,-2.34392 20.5815,0.29756 4.6279,2.24032 7.1239,5.32717 8.0495,9.95517 0.596,2.98025 0.5753,2.99572 -4.0002,2.99572 -4.0559,0 -4.7752,-0.34013 -6.088,-2.87882 -1.7624,-3.40803 -3.3063,-4.12118 -8.922,-4.12118 -6.6141,0 -10.3596,3.74259 -7.7933,7.78731 0.4492,0.70803 5.6514,2.55233 11.5604,4.09845 12.9842,3.39736 15.6582,5.49502 16.2858,12.7752 0.5733,6.65016 -1.8886,11.18097 -7.6555,14.08904 -5.9521,3.00148 -15.8439,3.10514 -21.5381,0.22571 z m 88,0 c -4.7962,-2.42536 -7.4362,-5.80751 -8.1982,-10.50305 l -0.5635,-3.47266 4.6309,0 c 3.5101,0 4.6308,0.374 4.6308,1.54545 0,0.85 1.1046,2.65 2.4546,4 2.0158,2.0159 3.4455,2.45455 8,2.45455 6.0359,0 9.5454,-2.1975 9.5454,-5.97695 0,-2.8212 -3.2915,-4.58471 -13,-6.96523 -4.675,-1.1463 -9.625,-2.90913 -11,-3.9174 -7.7411,-5.67646 -6.1053,-17.80421 3.0199,-22.38887 4.9579,-2.49091 15.125,-2.34392 20.5815,0.29756 4.6279,2.24032 7.1239,5.32717 8.0495,9.95517 0.596,2.98025 0.5753,2.99572 -4.0002,2.99572 -4.0559,0 -4.7752,-0.34013 -6.088,-2.87882 -1.7624,-3.40803 -3.3063,-4.12118 -8.922,-4.12118 -6.6141,0 -10.3596,3.74259 -7.7933,7.78731 0.4492,0.70803 5.6514,2.55233 11.5604,4.09845 12.9842,3.39736 15.6582,5.49502 16.2858,12.7752 0.5733,6.65016 -1.8886,11.18097 -7.6555,14.08904 -5.9521,3.00148 -15.8439,3.10514 -21.5381,0.22571 z m -38.5,-7.85401 c 0,-9.75361 1.0362,-7.14117 -12.6413,-31.8717 l -3.4566,-6.25 5.8388,0 5.8389,0 4.9436,10.04765 4.9437,10.04765 4.7,-10.04765 4.7,-10.04765 5.6365,0 5.6365,0 -4.2365,7.75 c -2.33,4.2625 -5.9616,10.82779 -8.07,14.58953 -3.6463,6.50527 -3.8336,7.27501 -3.8336,15.75 l 0,8.91047 -5,0 -5,0 0,-8.8783 z m 86,-10.6217 0,-19.5 -7,0 -7,0 0,-4 0,-4 19.5,0 19.5,0 0,4 0,4 -7.5,0 -7.5,0 0,19.5 0,19.5 -5,0 -5,0 0,-19.5 z m 30,-4 0,-23.5 17.5,0 17.5,0 0,4 0,4 -13,0 -13,0 0,5 0,5 12,0 12,0 0,4 0,4 -12,0 -12,0 0,6.5 0,6.5 13.5,0 13.5,0 0,4 0,4 -18,0 -18,0 0,-23.5 z m 44,0 0,-23.5 6.9615,0 6.9614,0 0.9572,3.75 c 0.5264,2.0625 2.4238,10.15741 4.2165,17.9887 1.7926,7.83128 3.3901,14.10794 3.5499,13.94814 0.1598,-0.15981 1.8793,-7.24222 3.8211,-15.7387 1.9418,-8.49648 3.7646,-16.46064 4.0506,-17.69814 0.478,-2.06881 1.0821,-2.25 7.5008,-2.25 l 6.981,0 0,23.5 0,23.5 -4.4774,0 -4.4775,0 -0.2725,-18.25 -0.2726,-18.25 -4.0173,18 -4.0172,18 -5.034,0.29537 -5.034,0.29536 -3.9487,-18.29536 -3.9488,-18.29537 -0.2726,18.25 -0.2725,18.25 -4.4775,0 -4.4774,0 0,-23.5 z m 59.0071,-43.09298 c -4.5782,-1.98538 -7.7147,-4.99271 -10.3325,-9.90702 -1.6874,-3.16767 -2.1353,-5.77305 -2.1527,-12.5209 -0.027,-10.50599 2.7106,-16.79033 9.3458,-21.4537 5.6937,-4.00169 16.449,-4.80596 23.364,-1.74713 4.8916,2.1638 9.5704,7.44697 9.9978,11.28917 0.2482,2.23207 -0.1141,2.4574 -4.3958,2.73393 -3.9532,0.25532 -4.7645,-0.008 -5.3091,-1.72391 -1.7258,-5.4374 -10.2965,-7.79812 -16.5573,-4.56053 -8.7771,4.53879 -9.1803,24.33336 -0.6022,29.56399 5.8668,3.57742 12.9454,2.02994 16.6886,-3.64835 3.0823,-4.67578 2.5872,-5.43257 -3.5537,-5.43257 l -5.5,0 0,-4 0,-4 10,0 10,0 0,13 0,13 -3.5,0 c -3.0666,0 -3.5,-0.30952 -3.5,-2.5 0,-2.89157 -1.1685,-3.20731 -3.1275,-0.8451 -3.5142,4.23747 -14.1923,5.6459 -20.8654,2.75212 z m -275.0071,-22.90702 0,-23.5 12.75,0.002 c 10.1675,0.001 13.4418,0.35571 16.1652,1.75 8.5931,4.39933 9.4742,18.01117 1.6344,25.24845 -2.3868,2.20338 -3.7665,2.54147 -11.6288,2.8495 l -8.9208,0.3495 0,8.4005 0,8.4005 -5,0 -5,0 0,-23.5 z m 24,-3.5 c 1.2256,-1.22555 2,-3.33333 2,-5.4433 0,-4.73009 -2.8478,-6.5567 -10.2225,-6.5567 l -5.7775,0 0,7 0,7 6,0 c 4.6667,0 6.4444,-0.44444 8,-2 z m 20,3.5 0,-23.5 14.0321,0 c 16.0214,0 19.788,1.01625 22.9423,6.18982 3.4112,5.59509 1.9193,14.19116 -2.9117,16.77664 -1.8192,0.97358 -1.7678,1.17459 1.0103,3.95272 2.707,2.70693 2.927,3.48155 2.927,10.3039 0,4.56558 0.4764,7.85516 1.25,8.63183 1.0022,1.00611 0.06,1.19445 -4.75,0.95 l -6,-0.30491 -0.5,-7.833 c -0.6272,-9.82633 -1.5486,-10.667 -11.6911,-10.667 l -7.3089,0 0,9.5 0,9.5 -4.5,0 -4.5,0 0,-23.5 z m 27.1713,-5.15499 c 2.4,-2.17198 2.3245,-5.8492 -0.1713,-8.34501 -1.6667,-1.66667 -3.3333,-2 -10,-2 l -8,0 0,6 0,6 8.1713,0 c 6.2001,0 8.6124,-0.39923 10,-1.65499 z m 19.8287,5.15499 0,-23.5 5,0 5,0 0,23.5 0,23.5 -5,0 -5,0 0,-23.5 z m 19,-0.0523 0,-23.55226 5.1287,0.30226 5.1287,0.30226 9.1213,15.77525 9.1213,15.77524 0.2748,-16.02524 0.2747,-16.02525 4.4753,0 4.4752,0 0,23.5 0,23.5 -4.9328,0 -4.9328,0 -9.5619,-16.75 -9.5618,-16.75 -0.01,16.75 0,16.75 -4.5,0 -4.5,0 0,-23.55226 z m 58,4.05226 0,-19.5 -7,0 -7,0 0,-4 0,-4 19.5,0 19.5,0 0,4 0,4 -7.5,0 -7.5,0 0,19.5 0,19.5 -5,0 -5,0 0,-19.5 z m 29,-4 0,-23.5 5,0 5,0 0,23.5 0,23.5 -5,0 -5,0 0,-23.5 z m 19,-0.0523 0,-23.55226 5.1287,0.30226 5.1287,0.30226 9.1213,15.77525 9.1213,15.77524 0.2748,-16.02524 0.2747,-16.02525 4.4753,0 4.4752,0 0,23.5 0,23.5 -4.9328,0 -4.9328,0 -9.5619,-16.75 -9.5618,-16.75 -0.01,16.75 0,16.75 -4.5,0 -4.5,0 0,-23.55226 z m -207.8729,-43.56147 c -7.1414,-3.62041 -8.07883,-6.87465 -8.10514,-28.13627 l -0.022,-17.75 4.93684,0 4.9369,0 0.3131,18.09041 c 0.3051,17.6267 0.3737,18.13936 2.6739,20 3.467,2.80439 9.5988,2.54096 12.6847,-0.54496 2.4196,-2.41953 2.4546,-2.70482 2.4546,-20 l 0,-17.54545 5.0606,0 5.0606,0 -0.3106,18.93004 c -0.3398,20.70858 -0.5714,21.56241 -7.1899,26.50382 -4.25,3.17308 -16.6356,3.42219 -22.4936,0.45241 z m 39.8729,-22.43853 0,-23.55226 5.1287,0.30226 5.1287,0.30226 9.1213,15.77525 9.1213,15.77524 0.2748,-16.02524 0.2747,-16.02525 4.4753,0 4.4752,0 0,23.5 0,23.5 -4.9328,0 -4.9328,0 -9.5619,-16.75 -9.5618,-16.75 -0.01,16.75 0,16.75 -4.5,0 -4.5,0 0,-23.55226 z m 47,0.0523 0,-23.5 5,0 5,0 0,23.5 0,23.5 -5,0 -5,0 0,-23.5 z m 16.5737,20.75 c 0.992,-1.5125 4.452,-6.95236 7.6888,-12.08859 l 5.8851,-9.33859 -5.7616,-9.16141 c -3.1689,-5.03877 -6.4039,-10.17391 -7.1888,-11.41141 -1.4214,-2.24082 -1.403,-2.25 4.5019,-2.25 l 5.9291,0 3.9359,6.9976 c 2.1647,3.84867 4.1897,6.99867 4.5,7 0.3102,0.001 2.3352,-3.14652 4.5,-6.9952 l 3.9359,-6.99759 5.7807,-0.002 5.7808,-0.002 -3.6907,5.75 c -2.0298,3.1625 -5.229,8.14603 -7.1091,11.07451 -1.8802,2.92849 -3.2007,5.85349 -2.9346,6.5 0.2662,0.64652 3.6425,6.12549 7.503,12.17549 l 7.0191,11 -5.0554,0.3068 c -2.7805,0.16873 -5.5657,0.11098 -6.1894,-0.12834 -0.6236,-0.23933 -2.8906,-3.63989 -5.0377,-7.5568 -2.1471,-3.91691 -4.2272,-7.12166 -4.6224,-7.12166 -0.3953,0 -2.6497,3.375 -5.0098,7.5 l -4.2912,7.5 -5.9367,0 -5.9366,0 1.8037,-2.75 z"
       id="path1350"
       style="fill:#000000" />
    <path
       d="m 1077.4447,488.47307 c -19.5303,-1.3361 -45.9524,-7.05591 -63.2861,-13.70009 -27.71398,-10.62302 -49.94992,-25.25527 -70.26172,-46.23539 -35.14771,-36.30417 -55.80142,-84.79234 -63.62125,-149.36197 -2.44776,-20.21157 -2.46353,-69.84817 -0.0283,-88.91401 8.95267,-70.0905 36.11502,-124.46768 80.69732,-161.55056 47.23455,-39.28896 116.97035,-55.51615 186.71855,-43.44851 30.8456,5.33683 59.715,17.23775 83.4796,34.41308 11.2081,8.10041 29.8027,26.93195 38.0364,38.52104 8.3904,11.80964 18.54,32.07814 23.1862,46.30152 3.1031,9.4998 7.5793,29.12389 7.5793,33.2282 0,1.23494 -4.6522,1.44924 -31.4615,1.44924 l -31.4615,0 -1.0529,-4.25 c -14.2366,-57.46278 -55.225,-89.87663 -119.8493,-94.77736 -55.6358,-4.21909 -104.2744,17.29403 -134.7603,59.60511 -13.74786,19.08054 -25.52147,47.20378 -30.73773,73.42225 -4.09544,20.58489 -5.14574,32.77606 -5.12607,59.5 0.0191,25.90106 1.1983,41.80189 4.561,61.5 11.45231,67.08576 44.03571,110.76822 95.3883,127.88088 28.0521,9.34805 65.9135,11.26157 91.9819,4.64878 50.9121,-12.91491 85.1183,-51.52225 101.0307,-114.02966 l 3.3093,-13 31.637,-0.26411 31.6369,-0.26411 -0.6552,3.76411 c -12.4275,71.37755 -40.6384,119.28249 -89.5614,152.08365 -35.8085,24.00838 -88.4136,36.82771 -137.3792,33.47791 z"
       id="path1354"
       style="fill:#000000" />
  </g>
  <metadata
     id="metadata5983">
    <rdf:RDF>
      <cc:Work
         rdf:about="">
        <dc:title></dc:title>
        <dc:format>image/svg+xml</dc:format>
        <dc:type
           rdf:resource="http://purl.org/dc/dcmitype/StillImage" />
      </cc:Work>
    </rdf:RDF>
  </metadata>
</svg>
